<?xml version="1.0" standalone="no"?>
<!DOCTYPE svg PUBLIC "-//W3C//DTD SVG 1.1//EN" "http://www.w3.org/Graphics/SVG/1.1/DTD/svg11.dtd" >
<svg xmlns="http://www.w3.org/2000/svg" xmlns:xlink="http://www.w3.org/1999/xlink" version="1.1">
<metadata>
Created by FontForge 20170924 at Tue Jul 30 16:44:28 2019
 By www-data
Typeface (c) (Tugcu Co.). 2019. All Rights Reserved
</metadata>
<defs>
<font id="Visage-Regular" horiz-adv-x="1500" >
  <font-face 
    font-family="Visage Regular"
    font-weight="400"
    font-stretch="normal"
    units-per-em="2048"
    panose-1="2 0 6 0 0 0 0 0 0 0"
    ascent="1638"
    descent="-410"
    x-height="1428"
    cap-height="1428"
    bbox="-83 -333 1892 1923"
    underline-thickness="150"
    underline-position="-292"
    unicode-range="U+001D-2212"
  />
<missing-glyph horiz-adv-x="944" 
d="M60 0v1434h824v-1434h-824zM110 50h724v1334h-724v-1334zM285 1148q31 28 58 43q53 30 112 30q92 0 148 -47.5t56 -127.5q0 -49 -23 -98.5t-87 -129.5q-63 -80 -99 -132t-36 -99q0 -38 24 -133h-32q-35 97 -35 148q0 76 81.5 218t81.5 217q0 57 -33 90t-91 33
q-38 0 -69 -17q-26 -15 -56 -40v45zM349 334l57 58q11 10 20 10q10 0 22 -11l56 -60q9 -11 9 -20q0 -11 -10 -22l-56 -62q-14 -14 -21 -14q-11 0 -20 10l-61 71q-7 9 -7 18q0 10 11 22z" />
    <glyph glyph-name=".notdef" horiz-adv-x="944" 
d="M60 0v1434h824v-1434h-824zM110 50h724v1334h-724v-1334zM285 1148q31 28 58 43q53 30 112 30q92 0 148 -47.5t56 -127.5q0 -49 -23 -98.5t-87 -129.5q-63 -80 -99 -132t-36 -99q0 -38 24 -133h-32q-35 97 -35 148q0 76 81.5 218t81.5 217q0 57 -33 90t-91 33
q-38 0 -69 -17q-26 -15 -56 -40v45zM349 334l57 58q11 10 20 10q10 0 22 -11l56 -60q9 -11 9 -20q0 -11 -10 -22l-56 -62q-14 -14 -21 -14q-11 0 -20 10l-61 71q-7 9 -7 18q0 10 11 22z" />
    <glyph glyph-name=".notdef" horiz-adv-x="944" 
d="M60 0v1434h824v-1434h-824zM110 50h724v1334h-724v-1334zM285 1148q31 28 58 43q53 30 112 30q92 0 148 -47.5t56 -127.5q0 -49 -23 -98.5t-87 -129.5q-63 -80 -99 -132t-36 -99q0 -38 24 -133h-32q-35 97 -35 148q0 76 81.5 218t81.5 217q0 57 -33 90t-91 33
q-38 0 -69 -17q-26 -15 -56 -40v45zM349 334l57 58q11 10 20 10q10 0 22 -11l56 -60q9 -11 9 -20q0 -11 -10 -22l-56 -62q-14 -14 -21 -14q-11 0 -20 10l-61 71q-7 9 -7 18q0 10 11 22z" />
    <glyph glyph-name="space" unicode=" " horiz-adv-x="508" 
 />
    <glyph glyph-name="space" unicode="&#xa0;" horiz-adv-x="508" 
 />
    <glyph glyph-name="exclam" unicode="!" horiz-adv-x="310" 
d="M84 309v0l-24 1119h190l-23 -1119h-143zM155 190v0q40 0 67.5 -27.5t27.5 -67.5q0 -39 -27.5 -67t-67.5 -28q-39 0 -67 28t-28 67q0 40 28 67.5t67 27.5z" />
    <glyph glyph-name="quotedbl" unicode="&#x22;" horiz-adv-x="453" 
d="M274 1146v0l-24 286h143l-24 -286h-95zM84 1146v0l-24 286h143l-24 -286h-95z" />
    <glyph glyph-name="numbersign" unicode="#" horiz-adv-x="1405" 
d="M1298 1428v0l-159 -452h206v-191h-272l-50 -142h225v-191h-292l-158 -452h-214l158 452h-238l-158 -452h-215l159 452h-230v191h296l50 142h-248v191h315l158 452h214l-158 -452h238l158 452h215zM809 643v0l49 142h-238l-49 -142h238z" />
    <glyph glyph-name="dollar" unicode="$" horiz-adv-x="1056" 
d="M726 752v0q180 -78 232 -219q38 -113 -25 -229q-91 -160 -312 -194v-110h-190v111q-57 9 -113 29q-106 36 -213 109q-11 7 -23 16q-6 4 -12 9l109 156q7 -5 13 -10q11 -7 21 -14q112 -77 218 -101v348q-67 22 -132.5 55.5t-122.5 84.5q-116 114 -75 263q30 93 120 159
q96 68 210 95v118h190v-107q63 -6 134 -32q133 -52 195 -164l-167 -91q-24 41 -67.5 64t-94.5 31v-338q53 -17 105 -39zM431 856v0v256q-53 -19 -98 -51q-39 -29 -50 -63q-6 -22 2.5 -39t19.5 -26q54 -48 126 -77zM766 396v0q15 28 15.5 46.5t-3.5 28.5q-24 61 -126 106
q-15 6 -31 12v-285q42 8 81.5 29.5t63.5 62.5z" />
    <glyph glyph-name="percent" unicode="%" horiz-adv-x="1550" 
d="M917 1428v0h214l-499 -1428h-215zM657 964v0q0 -127 -87.5 -217.5t-211.5 -90.5q-123 0 -210.5 90.5t-87.5 217.5t87.5 217t210.5 90q124 0 211.5 -90t87.5 -217zM358 847v0q45 0 76.5 34t31.5 83q0 48 -31.5 82.5t-76.5 34.5q-44 0 -76 -34.5t-32 -82.5q0 -49 32 -83
t76 -34zM1191 772v0q124 0 211.5 -90.5t87.5 -217.5t-87.5 -217t-211.5 -90q-123 0 -210.5 90t-87.5 217t87.5 217.5t210.5 90.5zM1191 347v0q45 0 76.5 34.5t31.5 82.5q0 49 -31.5 83t-76.5 34q-44 0 -76 -34t-32 -83q0 -48 32 -82.5t76 -34.5z" />
    <glyph glyph-name="ampersand" unicode="&#x26;" horiz-adv-x="1309" 
d="M983 327v0q80 -98 161 -198l105 -129h-245l-8 9q-65 81 -130 160q-47 -47 -98 -82q-106 -72 -220 -84q-22 -3 -44 -3q-117 1 -222 62q-129 77 -181 209q-41 110 -3 217t148 191q64 47 130 80q-30 36 -59 72q-122 152 -114 298q8 106 75 186.5t169 106.5q169 36 304 -80
q118 -112 120 -281q-4 -154 -109 -275q-42 -46 -91 -80q14 -16 27 -32l94 -114q27 -33 55 -67q22 67 39 139q6 23 12 47l19 71h238v-191h-91q-26 -118 -81 -232zM393 1119v0q-4 -74 72 -168q40 -50 82 -99q41 27 72 61q59 68 61 150q0 84 -57 138q-47 40 -101 40
q-15 0 -30 -4q-40 -10 -67.5 -43.5t-31.5 -74.5zM528 192v0q114 14 217 126q-51 61 -100 121l-2 2l-92 112q-24 29 -48 57q-78 -37 -142 -82q-44 -32 -73 -80t-9 -110q29 -71 98.5 -112t150.5 -34z" />
    <glyph glyph-name="quotesingle" unicode="'" horiz-adv-x="263" 
d="M84 1146v0l-24 286h143l-24 -286h-95z" />
    <glyph glyph-name="parenleft" unicode="(" horiz-adv-x="525" 
d="M60 1357v0q0 111 54.5 203t146.5 146.5t204 54.5v-190q-89 0 -152 -63t-63 -151v-1285q0 -89 63 -152t152 -63v-190q-112 0 -204 54.5t-146.5 146.5t-54.5 204v1285z" />
    <glyph glyph-name="parenright" unicode=")" horiz-adv-x="525" 
d="M465 1357v-1285q0 -112 -55 -204t-146.5 -146.5t-203.5 -54.5v190q89 0 151.5 63t62.5 152v1285q0 88 -62.5 151t-151.5 63v190q112 0 203.5 -54.5t146.5 -146.5t55 -203v0z" />
    <glyph glyph-name="plus" unicode="+" horiz-adv-x="783" 
d="M489 1046v0v-236h234v-191h-234v-236h-190v236h-239v191h239v236h190z" />
    <glyph glyph-name="comma" unicode="," horiz-adv-x="322" 
d="M159 191v0q64 1 94 -56q9 -20 8 -39q-5 -39 -28 -76q-1 -4 -3 -7q-40 -78 -77 -144q-19 -34 -40 -74l-53 17l75 181q2 5 0 9t-6 6q-58 28 -58 95q4 36 28 60.5t60 27.5z" />
    <glyph glyph-name="hyphen" unicode="-" horiz-adv-x="783" 
d="M60 621v0v190h663v-190h-663z" />
    <glyph glyph-name="hyphen" unicode="&#xad;" horiz-adv-x="783" 
d="M60 621v0v190h663v-190h-663z" />
    <glyph glyph-name="period" unicode="." horiz-adv-x="310" 
d="M155 190v0q40 0 67.5 -27.5t27.5 -67.5q0 -39 -27.5 -67t-67.5 -28q-39 0 -67 28t-28 67q0 40 28 67.5t67 27.5z" />
    <glyph glyph-name="slash" unicode="/" horiz-adv-x="834" 
d="M60 0v0l500 1428h214l-500 -1428h-214z" />
    <glyph glyph-name="zero" unicode="0" 
d="M1240 210v0q-96 -99 -220 -153q-129 -57 -270 -57q-140 0 -270 57q-124 54 -219 153q-98 103 -149.5 232t-51.5 272t51.5 272t149.5 232q95 99 219 153q130 57 270 57q141 0 270 -57q124 -54 220 -153q97 -103 148.5 -232t51.5 -272t-51.5 -272t-148.5 -232zM750 190v0
q138 0 251.5 71t181 190t67.5 263t-67.5 263t-181 190t-251.5 71t-251.5 -71t-181 -190t-67.5 -263t67.5 -263t181 -190t251.5 -71z" />
    <glyph glyph-name="one" unicode="1" horiz-adv-x="616" 
d="M60 1138v0l290 290h206v-1428h-191v1174l-170 -170z" />
    <glyph glyph-name="two" unicode="2" horiz-adv-x="969" 
d="M806 737v0l-381 -547h484v-190h-849l590 846q45 66 45 143q0 103 -73 176t-176 73h-323v190h323q121 0 220.5 -59.5t159 -159t59.5 -220.5q0 -136 -79 -252z" />
    <glyph glyph-name="three" unicode="3" horiz-adv-x="882" 
d="M822 1023v0q0 -93 -39 -173t-106 -136q67 -56 106 -136t39 -173q0 -112 -55 -204t-146.5 -146.5t-203.5 -54.5h-357v190h357q89 0 151.5 63t62.5 152q0 88 -62.5 151t-151.5 63h-119h-48v190h48h119q89 0 151.5 63t62.5 151q0 89 -62.5 152t-151.5 63h-357v190h357
q112 0 203.5 -54.5t146.5 -146.5t55 -204z" />
    <glyph glyph-name="four" unicode="4" horiz-adv-x="997" 
d="M770 809v0v-166h167v-191h-167v-452h-190v452h-520l377 976h204l-303 -785h242v166h190z" />
    <glyph glyph-name="five" unicode="5" horiz-adv-x="882" 
d="M381 881v0q122 0 222 -59.5t159.5 -159.5t59.5 -222q0 -121 -59.5 -221t-159.5 -159.5t-222 -59.5h-321v190h321q104 0 177 73.5t73 176.5q0 104 -73 177t-177 73h-321v738h714v-190h-524v-357h131z" />
    <glyph glyph-name="six" unicode="6" horiz-adv-x="1043" 
d="M521 952v0q128 0 232.5 -64.5t167 -172.5t62.5 -239t-62.5 -239t-167 -172.5t-232.5 -64.5q-123 0 -225.5 60.5t-165 162.5t-69.5 229h-1v405q0 229 167 404q175 167 404 167h241v-190h-241q-104 0 -190 -51t-137 -136t-54 -190q120 91 271 91zM521 190v0q112 0 191.5 84
t79.5 202t-79.5 202t-191.5 84t-191.5 -84t-79.5 -202t79.5 -202t191.5 -84z" />
    <glyph glyph-name="seven" unicode="7" horiz-adv-x="1017" 
d="M60 1238v0v190h897l-512 -1428h-202l443 1238h-626z" />
    <glyph glyph-name="eight" unicode="8" horiz-adv-x="1118" 
d="M910 815v0q148 -147 148 -339t-148 -339q-153 -137 -351 -137t-351 137q-148 147 -148 339t148 339q41 38 88 66q-82 91 -82 214q0 137 101 234t244 97t244 -97t101 -234q0 -123 -82 -214q47 -28 88 -66zM559 1236v0q-64 0 -109.5 -41.5t-45.5 -99.5t45.5 -99.5
t109.5 -41.5t109.5 41.5t45.5 99.5t-45.5 99.5t-109.5 41.5zM559 190v0q127 0 217.5 84t90.5 202t-90.5 202t-217.5 84q-128 0 -218.5 -84t-90.5 -202t90.5 -202t218.5 -84z" />
    <glyph glyph-name="nine" unicode="9" horiz-adv-x="1018" 
d="M509 1430v0q122 0 223 -60.5t161.5 -162.5t64.5 -229v0v-978h-190v589q-115 -85 -259 -85q-124 0 -226 62.5t-162.5 168t-60.5 232.5q0 128 60.5 233t162.5 167.5t226 62.5zM509 694v0q107 0 183 80t76 193t-76 193t-183 80t-183 -80t-76 -193t76 -193t183 -80z" />
    <glyph glyph-name="colon" unicode=":" horiz-adv-x="310" 
d="M155 190v0q40 0 67.5 -27.5t27.5 -67.5q0 -39 -27.5 -67t-67.5 -28q-39 0 -67 28t-28 67q0 40 28 67.5t67 27.5zM155 595v0q40 0 67.5 -28t27.5 -67q0 -40 -27.5 -67.5t-67.5 -27.5q-39 0 -67 27.5t-28 67.5q0 39 28 67t67 28z" />
    <glyph glyph-name="semicolon" unicode=";" horiz-adv-x="322" 
d="M166 596v0q40 0 67.5 -28t27.5 -67q0 -40 -27.5 -68t-67.5 -28q-39 0 -67 28t-28 68q0 39 28 67t67 28zM159 191v0q64 1 94 -56q9 -20 8 -39q-5 -39 -28 -76q-1 -4 -3 -7q-40 -78 -77 -144q-19 -34 -40 -74l-53 17l75 181q2 5 0 9t-6 6q-58 28 -58 95q4 36 28 60.5
t60 27.5z" />
    <glyph glyph-name="equal" unicode="=" horiz-adv-x="783" 
d="M60 766v0v190h663v-190h-663zM60 480v0v190h663v-190h-663z" />
    <glyph glyph-name="question" unicode="?" horiz-adv-x="932" 
d="M467 190v0q39 0 67 -27.5t28 -67.5q0 -39 -28 -67t-67 -28t-67 28t-28 67q0 40 28 67.5t67 27.5zM466 1428v0q113 -2 204.5 -56t146.5 -146.5t55 -204.5v-14q0 -144 -87.5 -252.5t-224.5 -143.5l-22 -302h-142l-27 481h96q89 0 152.5 63.5t63.5 153.5v14q0 89 -62 151.5
t-153 65.5q-92 -3 -154 -65.5t-62 -151.5h-190q0 112 55 204.5t146.5 146.5t204.5 56zM465 1428v0h2h-1v0h-1v0z" />
    <glyph glyph-name="at" unicode="@" 
d="M1020 1371v0q124 -54 220 -153q97 -103 148.5 -232t51.5 -272t-51.5 -272t-148.5 -232q-96 -99 -220 -153q-1 -1 -3 -2h-2q-35 69 -58 144t-29 104q-2 12 -5 25q-9 55 -16 129q-81 -62 -183 -62q-128 0 -218.5 93.5t-90.5 225.5t90.5 225.5t218.5 93.5q92 0 166 -50
q0 38 1 42l142 -3q0 -7 -0.5 -112.5t4.5 -249.5q13 -273 35 -347q82 73 130 177t48 224q0 144 -67.5 263t-181 190t-251.5 71t-251.5 -71t-181 -190t-67.5 -263t67.5 -263t181 -190t251.5 -71q5 0 10 1q26 -113 59 -187q-34 -4 -69 -4q-140 0 -270 57q-124 54 -219 153
q-98 103 -149.5 232t-51.5 272t51.5 272t149.5 232q95 99 219 153q130 57 270 57q141 0 270 -57zM724 538v0q69 0 118 51.5t49 124.5t-49 124.5t-118 51.5t-118 -51.5t-49 -124.5t49 -124.5t118 -51.5z" />
    <glyph glyph-name="A" unicode="A" horiz-adv-x="1348" 
d="M1085 0v0l-140 381h-543l-139 -381h-203l524 1428h180l524 -1428h-203zM472 571v0h404l-202 550z" />
    <glyph glyph-name="B" unicode="B" horiz-adv-x="1024" 
d="M964 405v0q0 -112 -54.5 -204t-146.5 -146.5t-203 -54.5h-500v1428h452q112 0 203.5 -54.5t146.5 -146.5t55 -204q0 -85 -32.5 -159t-89.5 -130q78 -56 123.5 -142t45.5 -187zM250 1238v0v-429h262q89 0 151.5 63t62.5 151q0 89 -62.5 152t-151.5 63h-262zM250 619v0
v-429h310q88 0 151 63t63 152q0 88 -63 151t-151 63h-310z" />
    <glyph glyph-name="C" unicode="C" horiz-adv-x="1143" 
d="M269 1219v0q102 101 232 155t273 54q163 0 309 -70v-222q-136 102 -309 102q-144 0 -263 -71t-190 -190t-71 -263t71 -263t190 -190t263 -71q173 0 309 102v-222q-146 -70 -309 -70q-143 0 -273 54t-232 155q-101 102 -155 232t-54 273t54 273t155 232z" />
    <glyph glyph-name="D" unicode="D" horiz-adv-x="1048" 
d="M779 1219v0q102 -102 155.5 -232t53.5 -273t-53.5 -273t-155.5 -232q-102 -101 -232 -155t-273 -54h-214v1428h214q143 0 273 -54t232 -155zM274 190v0q145 0 263.5 71t189.5 190t71 263t-71 263t-189.5 190t-263.5 71h-24v-1048h24z" />
    <glyph glyph-name="E" unicode="E" horiz-adv-x="953" 
d="M893 190v0v-190h-833v1428h831v-190h-641v-429h476h48v-190h-48h-476v-429h643z" />
    <glyph glyph-name="F" unicode="F" horiz-adv-x="951" 
d="M774 619v0h-48h-476v-619h-190v1428h831v-190h-641v-429h476h48v-190z" />
    <glyph glyph-name="G" unicode="G" horiz-adv-x="1167" 
d="M1107 82v0q-156 -82 -333 -82q-143 0 -273 54t-232 155q-101 102 -155 232t-54 273t54 273t155 232q102 101 232 155t273 54q177 0 333 -82v-228q-68 56 -153 88t-180 32q-144 0 -263 -71t-190 -190t-71 -263t71 -263t190 -190t263 -71q74 0 143 20v409h-310v190h500
v-499v-143v-85z" />
    <glyph glyph-name="H" unicode="H" horiz-adv-x="1096" 
d="M845 809v0v619h191v-1428h-191v619h-595v-619h-190v1428h190v-619h595z" />
    <glyph glyph-name="I" unicode="I" horiz-adv-x="310" 
d="M250 1428v0v-1428h-190v1428h190z" />
    <glyph glyph-name="J" unicode="J" horiz-adv-x="667" 
d="M607 405v0q0 -112 -54.5 -204t-146.5 -146.5t-203 -54.5h-143v190h143q88 0 151 63t63 152v1023h190v-1023z" />
    <glyph glyph-name="K" unicode="K" horiz-adv-x="1093" 
d="M777 1428v0h256l-552 -614l549 -814h-230l-451 668l-99 -110v-558h-190v1428h190v-585z" />
    <glyph glyph-name="L" unicode="L" horiz-adv-x="929" 
d="M869 190v0v-190h-809v1428h190v-1238h619z" />
    <glyph glyph-name="M" unicode="M" 
d="M1250 0v0v1068l-411 -1068h-178l-411 1068v-1068h-190v1428h256l434 -1129l435 1129h255v-1428h-190z" />
    <glyph glyph-name="N" unicode="N" horiz-adv-x="1120" 
d="M1060 1428v0v-1428h-250l-560 1120v-1120h-190v1428h249l560 -1120v1120h191z" />
    <glyph glyph-name="O" unicode="O" 
d="M1240 210v0q-96 -99 -220 -153q-129 -57 -270 -57q-140 0 -270 57q-124 54 -219 153q-98 103 -149.5 232t-51.5 272t51.5 272t149.5 232q95 99 219 153q130 57 270 57q141 0 270 -57q124 -54 220 -153q97 -103 148.5 -232t51.5 -272t-51.5 -272t-148.5 -232zM750 190v0
q138 0 251.5 71t181 190t67.5 263t-67.5 263t-181 190t-251.5 71t-251.5 -71t-181 -190t-67.5 -263t67.5 -263t181 -190t251.5 -71z" />
    <glyph glyph-name="P" unicode="P" horiz-adv-x="977" 
d="M917 952v0q0 -131 -64.5 -239t-172.5 -172.5t-239 -64.5h-191v-476h-190v1428h381q131 0 239 -64.5t172.5 -172.5t64.5 -239zM250 1238v0v-572h191q118 0 201.5 84t83.5 202t-83.5 202t-201.5 84h-191z" />
    <glyph glyph-name="Q" unicode="Q" 
d="M1240 1218v0q97 -103 148.5 -232t51.5 -272q0 -272 -184 -485l154 -229h-229l-71 105q-43 -28 -90 -48q-129 -57 -270 -57q-140 0 -270 57q-124 54 -219 153q-98 103 -149.5 232t-51.5 272t51.5 272t149.5 232q95 99 219 153q130 57 270 57q141 0 270 -57
q124 -54 220 -153zM1145 394v0q105 139 105 320q0 144 -67.5 263t-181 190t-251.5 71t-251.5 -71t-181 -190t-67.5 -263t67.5 -263t181 -190t251.5 -71q139 0 254 73l-181 268h230z" />
    <glyph glyph-name="R" unicode="R" horiz-adv-x="1016" 
d="M917 952v0q0 -151 -84 -270t-220 -174l343 -508h-230l-321 476h-155v-476h-190v1428h381q131 0 239 -64.5t172.5 -172.5t64.5 -239zM250 666v0h191q118 0 201.5 84t83.5 202t-83.5 202t-201.5 84h-191v-572z" />
    <glyph glyph-name="S" unicode="S" horiz-adv-x="1084" 
d="M981 270v0q-50 -119 -168 -193q-103 -63 -231 -75q-24 -2 -48 -2q-109 0 -218 43q-110 43 -220 130q-11 9 -24 19l-12 10l120 148q6 -5 13 -11q12 -9 22 -17q182 -146 350 -130q67 5 136.5 40.5t103.5 109.5q19 50 4 102t-57 83q-75 47 -176 75q-39 12 -78 26l-5 1
q-70 24 -144.5 58.5t-136.5 90.5t-96 147q-29 84 -9 175q18 81 71 149q76 95 197.5 141.5t258.5 32.5q244 -32 342 -229l-172 -81q-37 69 -96.5 94t-95.5 27q-183 14 -284 -102q-22 -28 -33.5 -66t1.5 -77q28 -72 100 -111.5t162 -69.5l4 -1q34 -12 71 -24q56 -16 115 -39.5
t114 -60.5q96 -69 130 -187q32 -116 -11 -226z" />
    <glyph glyph-name="T" unicode="T" horiz-adv-x="1120" 
d="M465 0v0v1238h-405v190h1000v-190h-405v-1238h-190z" />
    <glyph glyph-name="U" unicode="U" horiz-adv-x="1024" 
d="M964 452v0q0 -124 -61 -227t-163.5 -164t-227.5 -61q-124 0 -227 61t-164 164t-61 227v976h190v-976q0 -108 77 -185t185 -77t185 77t77 185v976h190v-976z" />
    <glyph glyph-name="V" unicode="V" horiz-adv-x="1348" 
d="M1085 1428v0h203l-524 -1428h-180l-524 1428h203l411 -1121z" />
    <glyph glyph-name="W" unicode="W" horiz-adv-x="1952" 
d="M1278 307v0l412 1121h202l-523 -1428h-181l-212 578l-212 -578h-180l-524 1428h203l411 -1121l201 547h203z" />
    <glyph glyph-name="X" unicode="X" horiz-adv-x="1211" 
d="M717 714v0l434 -714h-223l-322 531l-323 -531h-223l434 714l-434 714h223l323 -531l322 531h223z" />
    <glyph glyph-name="Y" unicode="Y" horiz-adv-x="1184" 
d="M910 1428v0h214l-437 -856v-572h-190v572l-437 856h214l318 -624z" />
    <glyph glyph-name="Z" unicode="Z" horiz-adv-x="1076" 
d="M978 0v0h-918l643 1238h-605v190h918l-643 -1238h605v-190z" />
    <glyph glyph-name="underscore" unicode="_" horiz-adv-x="783" 
d="M60 0v0v190h663v-190h-663z" />
    <glyph glyph-name="grave" unicode="`" horiz-adv-x="351" 
d="M206 1128v0l-146 247l129 62l102 -268z" />
    <glyph glyph-name="a" unicode="a" horiz-adv-x="1348" 
d="M1085 0v0l-140 381h-543l-139 -381h-203l524 1428h180l524 -1428h-203zM472 571v0h404l-202 550z" />
    <glyph glyph-name="b" unicode="b" horiz-adv-x="1024" 
d="M964 405v0q0 -112 -54.5 -204t-146.5 -146.5t-203 -54.5h-500v1428h452q112 0 203.5 -54.5t146.5 -146.5t55 -204q0 -85 -32.5 -159t-89.5 -130q78 -56 123.5 -142t45.5 -187zM250 1238v0v-429h262q89 0 151.5 63t62.5 151q0 89 -62.5 152t-151.5 63h-262zM250 619v0
v-429h310q88 0 151 63t63 152q0 88 -63 151t-151 63h-310z" />
    <glyph glyph-name="c" unicode="c" horiz-adv-x="1143" 
d="M269 1219v0q102 101 232 155t273 54q163 0 309 -70v-222q-136 102 -309 102q-144 0 -263 -71t-190 -190t-71 -263t71 -263t190 -190t263 -71q173 0 309 102v-222q-146 -70 -309 -70q-143 0 -273 54t-232 155q-101 102 -155 232t-54 273t54 273t155 232z" />
    <glyph glyph-name="d" unicode="d" horiz-adv-x="1048" 
d="M779 1219v0q102 -102 155.5 -232t53.5 -273t-53.5 -273t-155.5 -232q-102 -101 -232 -155t-273 -54h-214v1428h214q143 0 273 -54t232 -155zM274 190v0q145 0 263.5 71t189.5 190t71 263t-71 263t-189.5 190t-263.5 71h-24v-1048h24z" />
    <glyph glyph-name="e" unicode="e" horiz-adv-x="953" 
d="M893 190v0v-190h-833v1428h831v-190h-641v-429h476h48v-190h-48h-476v-429h643z" />
    <glyph glyph-name="f" unicode="f" horiz-adv-x="951" 
d="M774 619v0h-48h-476v-619h-190v1428h831v-190h-641v-429h476h48v-190z" />
    <glyph glyph-name="g" unicode="g" horiz-adv-x="1167" 
d="M1107 82v0q-156 -82 -333 -82q-143 0 -273 54t-232 155q-101 102 -155 232t-54 273t54 273t155 232q102 101 232 155t273 54q177 0 333 -82v-228q-68 56 -153 88t-180 32q-144 0 -263 -71t-190 -190t-71 -263t71 -263t190 -190t263 -71q74 0 143 20v409h-310v190h500
v-499v-143v-85z" />
    <glyph glyph-name="h" unicode="h" horiz-adv-x="1096" 
d="M845 809v0v619h191v-1428h-191v619h-595v-619h-190v1428h190v-619h595z" />
    <glyph glyph-name="i" unicode="i" horiz-adv-x="310" 
d="M250 1428v0v-1428h-190v1428h190z" />
    <glyph glyph-name="j" unicode="j" horiz-adv-x="667" 
d="M607 405v0q0 -112 -54.5 -204t-146.5 -146.5t-203 -54.5h-143v190h143q88 0 151 63t63 152v1023h190v-1023z" />
    <glyph glyph-name="k" unicode="k" horiz-adv-x="1093" 
d="M777 1428v0h256l-552 -614l549 -814h-230l-451 668l-99 -110v-558h-190v1428h190v-585z" />
    <glyph glyph-name="l" unicode="l" horiz-adv-x="929" 
d="M869 190v0v-190h-809v1428h190v-1238h619z" />
    <glyph glyph-name="m" unicode="m" 
d="M1250 0v0v1068l-411 -1068h-178l-411 1068v-1068h-190v1428h256l434 -1129l435 1129h255v-1428h-190z" />
    <glyph glyph-name="n" unicode="n" horiz-adv-x="1120" 
d="M1060 1428v0v-1428h-250l-560 1120v-1120h-190v1428h249l560 -1120v1120h191z" />
    <glyph glyph-name="o" unicode="o" 
d="M1240 210v0q-96 -99 -220 -153q-129 -57 -270 -57q-140 0 -270 57q-124 54 -219 153q-98 103 -149.5 232t-51.5 272t51.5 272t149.5 232q95 99 219 153q130 57 270 57q141 0 270 -57q124 -54 220 -153q97 -103 148.5 -232t51.5 -272t-51.5 -272t-148.5 -232zM750 190v0
q138 0 251.5 71t181 190t67.5 263t-67.5 263t-181 190t-251.5 71t-251.5 -71t-181 -190t-67.5 -263t67.5 -263t181 -190t251.5 -71z" />
    <glyph glyph-name="p" unicode="p" horiz-adv-x="977" 
d="M917 952v0q0 -131 -64.5 -239t-172.5 -172.5t-239 -64.5h-191v-476h-190v1428h381q131 0 239 -64.5t172.5 -172.5t64.5 -239zM250 1238v0v-572h191q118 0 201.5 84t83.5 202t-83.5 202t-201.5 84h-191z" />
    <glyph glyph-name="q" unicode="q" 
d="M1240 1218v0q97 -103 148.5 -232t51.5 -272q0 -272 -184 -485l154 -229h-229l-71 105q-43 -28 -90 -48q-129 -57 -270 -57q-140 0 -270 57q-124 54 -219 153q-98 103 -149.5 232t-51.5 272t51.5 272t149.5 232q95 99 219 153q130 57 270 57q141 0 270 -57
q124 -54 220 -153zM1145 394v0q105 139 105 320q0 144 -67.5 263t-181 190t-251.5 71t-251.5 -71t-181 -190t-67.5 -263t67.5 -263t181 -190t251.5 -71q139 0 254 73l-181 268h230z" />
    <glyph glyph-name="r" unicode="r" horiz-adv-x="1016" 
d="M917 952v0q0 -151 -84 -270t-220 -174l343 -508h-230l-321 476h-155v-476h-190v1428h381q131 0 239 -64.5t172.5 -172.5t64.5 -239zM250 666v0h191q118 0 201.5 84t83.5 202t-83.5 202t-201.5 84h-191v-572z" />
    <glyph glyph-name="s" unicode="s" horiz-adv-x="1084" 
d="M981 270v0q-50 -119 -168 -193q-103 -63 -231 -75q-24 -2 -48 -2q-109 0 -218 43q-110 43 -220 130q-11 9 -24 19l-12 10l120 148q6 -5 13 -11q12 -9 22 -17q182 -146 350 -130q67 5 136.5 40.5t103.5 109.5q19 50 4 102t-57 83q-75 47 -176 75q-39 12 -78 26l-5 1
q-70 24 -144.5 58.5t-136.5 90.5t-96 147q-29 84 -9 175q18 81 71 149q76 95 197.5 141.5t258.5 32.5q244 -32 342 -229l-172 -81q-37 69 -96.5 94t-95.5 27q-183 14 -284 -102q-22 -28 -33.5 -66t1.5 -77q28 -72 100 -111.5t162 -69.5l4 -1q34 -12 71 -24q56 -16 115 -39.5
t114 -60.5q96 -69 130 -187q32 -116 -11 -226z" />
    <glyph glyph-name="t" unicode="t" horiz-adv-x="1120" 
d="M465 0v0v1238h-405v190h1000v-190h-405v-1238h-190z" />
    <glyph glyph-name="u" unicode="u" horiz-adv-x="1024" 
d="M964 452v0q0 -124 -61 -227t-163.5 -164t-227.5 -61q-124 0 -227 61t-164 164t-61 227v976h190v-976q0 -108 77 -185t185 -77t185 77t77 185v976h190v-976z" />
    <glyph glyph-name="v" unicode="v" horiz-adv-x="1348" 
d="M1085 1428v0h203l-524 -1428h-180l-524 1428h203l411 -1121z" />
    <glyph glyph-name="w" unicode="w" horiz-adv-x="1952" 
d="M1278 307v0l412 1121h202l-523 -1428h-181l-212 578l-212 -578h-180l-524 1428h203l411 -1121l201 547h203z" />
    <glyph glyph-name="x" unicode="x" horiz-adv-x="1211" 
d="M717 714v0l434 -714h-223l-322 531l-323 -531h-223l434 714l-434 714h223l323 -531l322 531h223z" />
    <glyph glyph-name="y" unicode="y" horiz-adv-x="1184" 
d="M910 1428v0h214l-437 -856v-572h-190v572l-437 856h214l318 -624z" />
    <glyph glyph-name="z" unicode="z" horiz-adv-x="1076" 
d="M978 0v0h-918l643 1238h-605v190h918l-643 -1238h605v-190z" />
    <glyph glyph-name="dieresis" unicode="&#xa8;" horiz-adv-x="596" 
d="M155 1195v0q-39 0 -67 28t-28 67q0 40 28 67.5t67 27.5q40 0 67.5 -27.5t27.5 -67.5q0 -39 -27.5 -67t-67.5 -28zM441 1385v0q39 0 67 -27.5t28 -67.5q0 -39 -28 -67t-67 -28q-40 0 -67.5 28t-27.5 67q0 40 27.5 67.5t67.5 27.5z" />
    <glyph glyph-name="acute" unicode="&#xb4;" horiz-adv-x="351" 
d="M163 1432v0l128 -62l-145 -247l-86 41z" />
    <glyph glyph-name="Agrave" unicode="&#xc0;" horiz-adv-x="1348" 
d="M1085 0v0l-140 381h-543l-139 -381h-203l524 1428h180l524 -1428h-203zM472 571v0h404l-202 550zM666 1598v0l-146 247l129 62l102 -268z" />
    <glyph glyph-name="Aacute" unicode="&#xc1;" horiz-adv-x="1348" 
d="M1085 0v0l-140 381h-543l-139 -381h-203l524 1428h180l524 -1428h-203zM472 571v0h404l-202 550zM700 1902v0l128 -62l-145 -247l-86 41z" />
    <glyph glyph-name="Acircumflex" unicode="&#xc2;" horiz-adv-x="1348" 
d="M1085 0v0l-140 381h-543l-139 -381h-203l524 1428h180l524 -1428h-203zM472 571v0h404l-202 550zM674 1898v0l185 -185l-84 -84l-101 101l-101 -101l-84 84z" />
    <glyph glyph-name="Atilde" unicode="&#xc3;" horiz-adv-x="1348" 
d="M1085 0v0l-140 381h-543l-139 -381h-203l524 1428h180l524 -1428h-203zM472 571v0h404l-202 550zM605 1741v0q-16 6 -32.5 -7t-25.5 -26l-77 55q78 101 174 65q36 -19 59 -44v-1q4 -4 8 -7q15 -14 23 -16q15 -2 31 16.5t28 42.5l85 -42q-23 -46 -47.5 -70.5t-48 -33.5
t-43.5 -9q-16 0 -28 4q-22 6 -38.5 17t-26.5 21l-10 10q-17 17 -31 25z" />
    <glyph glyph-name="Adieresis" unicode="&#xc4;" horiz-adv-x="1348" 
d="M1085 0v0l-140 381h-543l-139 -381h-203l524 1428h180l524 -1428h-203zM472 571v0h404l-202 550zM531 1665v0q-39 0 -67 28t-28 67q0 40 28 67.5t67 27.5q40 0 67.5 -27.5t27.5 -67.5q0 -39 -27.5 -67t-67.5 -28zM817 1855v0q39 0 67 -27.5t28 -67.5q0 -39 -28 -67
t-67 -28q-40 0 -67.5 28t-27.5 67q0 40 27.5 67.5t67.5 27.5z" />
    <glyph glyph-name="Aring" unicode="&#xc5;" horiz-adv-x="1348" 
d="M1085 0v0l-140 381h-543l-139 -381h-203l524 1428h180l524 -1428h-203zM472 571v0h404l-202 550zM840 1751v0q0 -71 -49 -121t-117 -50q-69 0 -118 50t-49 121t49 121.5t118 50.5q68 0 117 -50.5t49 -121.5zM674 1675v0q29 0 50 22.5t21 53.5q0 32 -21 54.5t-50 22.5
q-30 0 -51 -22.5t-21 -54.5q0 -31 21 -53.5t51 -22.5z" />
    <glyph glyph-name="AE" unicode="&#xc6;" horiz-adv-x="1893" 
d="M1833 1428v0v-190h-680l33 -429h530h48v-190h-48h-516l33 -429h600v-190h-545h-73h-130l-123 381h-3h-302h-238l-156 -381h-203l574 1428h130h50h236h783zM657 571v0h244l-177 550l-226 -550h159z" />
    <glyph glyph-name="Ccedilla" unicode="&#xc7;" horiz-adv-x="1143" 
d="M269 1218v0q102 102 232 156t273 54q163 0 309 -71v-221q-136 101 -309 101q-144 0 -263 -70.5t-190 -189.5t-71 -263q0 -145 71 -263.5t190 -189.5t263 -71q173 0 309 101v-221q-133 -65 -285 -70v-167h-191v186q-193 47 -338 190q-101 102 -155 232t-54 273t54 272.5
t155 231.5z" />
    <glyph glyph-name="Egrave" unicode="&#xc8;" horiz-adv-x="953" 
d="M893 190v0v-190h-833v1428h831v-190h-641v-429h476h48v-190h-48h-476v-429h643zM467 1598v0l-146 247l129 62l102 -268z" />
    <glyph glyph-name="Eacute" unicode="&#xc9;" horiz-adv-x="953" 
d="M893 190v0v-190h-833v1428h831v-190h-641v-429h476h48v-190h-48h-476v-429h643zM501 1902v0l128 -62l-145 -247l-86 41z" />
    <glyph glyph-name="Ecircumflex" unicode="&#xca;" horiz-adv-x="953" 
d="M893 190v0v-190h-833v1428h831v-190h-641v-429h476h48v-190h-48h-476v-429h643zM475 1898v0l185 -185l-84 -84l-101 101l-101 -101l-84 84z" />
    <glyph glyph-name="Edieresis" unicode="&#xcb;" horiz-adv-x="953" 
d="M893 190v0v-190h-833v1428h831v-190h-641v-429h476h48v-190h-48h-476v-429h643zM332 1665v0q-39 0 -67 28t-28 67q0 40 28 67.5t67 27.5q40 0 67.5 -27.5t27.5 -67.5q0 -39 -27.5 -67t-67.5 -28zM618 1855v0q39 0 67 -27.5t28 -67.5q0 -39 -28 -67t-67 -28
q-40 0 -67.5 28t-27.5 67q0 40 27.5 67.5t67.5 27.5z" />
    <glyph glyph-name="Igrave" unicode="&#xcc;" horiz-adv-x="369" 
d="M309 1428v0v-1428h-190v1428h190zM206 1598v0l-146 247l129 62l102 -268z" />
    <glyph glyph-name="Iacute" unicode="&#xcd;" horiz-adv-x="369" 
d="M250 1428v0v-1428h-190v1428h190zM181 1902v0l128 -62l-145 -247l-86 41z" />
    <glyph glyph-name="Icircumflex" unicode="&#xce;" horiz-adv-x="490" 
d="M340 1428v0v-1428h-190v1428h190zM245 1898v0l185 -185l-84 -84l-101 101l-101 -101l-84 84z" />
    <glyph glyph-name="Idieresis" unicode="&#xcf;" horiz-adv-x="596" 
d="M393 1428v0v-1428h-190v1428h190zM155 1665v0q-39 0 -67 28t-28 67q0 40 28 67.5t67 27.5q40 0 67.5 -27.5t27.5 -67.5q0 -39 -27.5 -67t-67.5 -28zM441 1855v0q39 0 67 -27.5t28 -67.5q0 -39 -28 -67t-67 -28q-40 0 -67.5 28t-27.5 67q0 40 27.5 67.5t67.5 27.5z" />
    <glyph glyph-name="Eth" unicode="&#xd0;" horiz-adv-x="1120" 
d="M346 1428v0q143 0 272.5 -54t231.5 -155q102 -102 156 -232t54 -273t-54 -273t-156 -232q-102 -101 -231.5 -155t-272.5 -54h-215v619h-71v190h71v619h215zM346 190v0q144 0 263 71t189.5 190t70.5 263t-70.5 263t-189.5 190t-263 71h-24v-429h333v-190h-333v-429h24z
" />
    <glyph glyph-name="Ntilde" unicode="&#xd1;" horiz-adv-x="1120" 
d="M1060 1428v0v-1428h-250l-560 1120v-1120h-190v1428h249l560 -1120v1120h191zM491 1741v0q-16 6 -32.5 -7t-25.5 -26l-77 55q78 101 174 65q36 -19 59 -44v-1q4 -4 8 -7q15 -14 23 -16q15 -2 31 16.5t28 42.5l85 -42q-23 -46 -47.5 -70.5t-48 -33.5t-43.5 -9q-16 0 -28 4
q-22 6 -38.5 17t-26.5 21l-10 10q-17 17 -31 25z" />
    <glyph glyph-name="Ograve" unicode="&#xd2;" 
d="M1240 210v0q-96 -99 -220 -153q-129 -57 -270 -57q-140 0 -270 57q-124 54 -219 153q-98 103 -149.5 232t-51.5 272t51.5 272t149.5 232q95 99 219 153q130 57 270 57q141 0 270 -57q124 -54 220 -153q97 -103 148.5 -232t51.5 -272t-51.5 -272t-148.5 -232zM750 190v0
q138 0 251.5 71t181 190t67.5 263t-67.5 263t-181 190t-251.5 71t-251.5 -71t-181 -190t-67.5 -263t67.5 -263t181 -190t251.5 -71zM742 1598v0l-146 247l129 62l102 -268z" />
    <glyph glyph-name="Oacute" unicode="&#xd3;" 
d="M1240 210v0q-96 -99 -220 -153q-129 -57 -270 -57q-140 0 -270 57q-124 54 -219 153q-98 103 -149.5 232t-51.5 272t51.5 272t149.5 232q95 99 219 153q130 57 270 57q141 0 270 -57q124 -54 220 -153q97 -103 148.5 -232t51.5 -272t-51.5 -272t-148.5 -232zM750 190v0
q138 0 251.5 71t181 190t67.5 263t-67.5 263t-181 190t-251.5 71t-251.5 -71t-181 -190t-67.5 -263t67.5 -263t181 -190t251.5 -71zM776 1902v0l128 -62l-145 -247l-86 41z" />
    <glyph glyph-name="Ocircumflex" unicode="&#xd4;" 
d="M1240 210v0q-96 -99 -220 -153q-129 -57 -270 -57q-140 0 -270 57q-124 54 -219 153q-98 103 -149.5 232t-51.5 272t51.5 272t149.5 232q95 99 219 153q130 57 270 57q141 0 270 -57q124 -54 220 -153q97 -103 148.5 -232t51.5 -272t-51.5 -272t-148.5 -232zM750 190v0
q138 0 251.5 71t181 190t67.5 263t-67.5 263t-181 190t-251.5 71t-251.5 -71t-181 -190t-67.5 -263t67.5 -263t181 -190t251.5 -71zM750 1898v0l185 -185l-84 -84l-101 101l-101 -101l-84 84z" />
    <glyph glyph-name="Otilde" unicode="&#xd5;" 
d="M1240 210v0q-96 -99 -220 -153q-129 -57 -270 -57q-140 0 -270 57q-124 54 -219 153q-98 103 -149.5 232t-51.5 272t51.5 272t149.5 232q95 99 219 153q130 57 270 57q141 0 270 -57q124 -54 220 -153q97 -103 148.5 -232t51.5 -272t-51.5 -272t-148.5 -232zM750 190v0
q138 0 251.5 71t181 190t67.5 263t-67.5 263t-181 190t-251.5 71t-251.5 -71t-181 -190t-67.5 -263t67.5 -263t181 -190t251.5 -71zM681 1741v0q-16 6 -32.5 -7t-25.5 -26l-77 55q78 101 174 65q36 -19 59 -44v-1q4 -4 8 -7q15 -14 23 -16q15 -2 31 16.5t28 42.5l85 -42
q-23 -46 -47.5 -70.5t-48 -33.5t-43.5 -9q-16 0 -28 4q-22 6 -38.5 17t-26.5 21l-10 10q-17 17 -31 25z" />
    <glyph glyph-name="Odieresis" unicode="&#xd6;" 
d="M1240 210v0q-96 -99 -220 -153q-129 -57 -270 -57q-140 0 -270 57q-124 54 -219 153q-98 103 -149.5 232t-51.5 272t51.5 272t149.5 232q95 99 219 153q130 57 270 57q141 0 270 -57q124 -54 220 -153q97 -103 148.5 -232t51.5 -272t-51.5 -272t-148.5 -232zM750 190v0
q138 0 251.5 71t181 190t67.5 263t-67.5 263t-181 190t-251.5 71t-251.5 -71t-181 -190t-67.5 -263t67.5 -263t181 -190t251.5 -71zM607 1665v0q-39 0 -67 28t-28 67q0 40 28 67.5t67 27.5q40 0 67.5 -27.5t27.5 -67.5q0 -39 -27.5 -67t-67.5 -28zM893 1855v0q39 0 67 -27.5
t28 -67.5q0 -39 -28 -67t-67 -28q-40 0 -67.5 28t-27.5 67q0 40 27.5 67.5t67.5 27.5z" />
    <glyph glyph-name="multiply" unicode="&#xd7;" horiz-adv-x="725" 
d="M530 1015v0l135 -134l-167 -167l165 -166l-134 -134l-166 165l-167 -167l-134 135l167 167l-169 168l135 135l168 -169z" />
    <glyph glyph-name="Oslash" unicode="&#xd8;" 
d="M1169 1281v0q37 -29 71 -63q97 -103 148.5 -232t51.5 -272t-51.5 -272t-148.5 -232q-96 -99 -220 -153q-129 -57 -270 -57q-133 0 -257 51l-28 -51h-215l81 147q-37 29 -70 63q-98 103 -149.5 232t-51.5 272t51.5 272t149.5 232q95 99 219 153q130 57 270 57
q134 0 258 -51l28 51h214zM425 317v0l490 891q-78 30 -165 30q-138 0 -251.5 -71t-181 -190t-67.5 -263q0 -119 47 -221.5t128 -175.5zM750 190v0q138 0 251.5 71t181 190t67.5 263q0 119 -46.5 221.5t-127.5 175.5l-491 -891q79 -30 165 -30z" />
    <glyph glyph-name="Ugrave" unicode="&#xd9;" horiz-adv-x="1024" 
d="M964 452v0q0 -124 -61 -227t-163.5 -164t-227.5 -61q-124 0 -227 61t-164 164t-61 227v976h190v-976q0 -108 77 -185t185 -77t185 77t77 185v976h190v-976zM504 1598v0l-146 247l129 62l102 -268z" />
    <glyph glyph-name="Uacute" unicode="&#xda;" horiz-adv-x="1024" 
d="M964 452v0q0 -124 -61 -227t-163.5 -164t-227.5 -61q-124 0 -227 61t-164 164t-61 227v976h190v-976q0 -108 77 -185t185 -77t185 77t77 185v976h190v-976zM538 1902v0l128 -62l-145 -247l-86 41z" />
    <glyph glyph-name="Ucircumflex" unicode="&#xdb;" horiz-adv-x="1024" 
d="M964 452v0q0 -124 -61 -227t-163.5 -164t-227.5 -61q-124 0 -227 61t-164 164t-61 227v976h190v-976q0 -108 77 -185t185 -77t185 77t77 185v976h190v-976zM512 1898v0l185 -185l-84 -84l-101 101l-101 -101l-84 84z" />
    <glyph glyph-name="Udieresis" unicode="&#xdc;" horiz-adv-x="1024" 
d="M964 452v0q0 -124 -61 -227t-163.5 -164t-227.5 -61q-124 0 -227 61t-164 164t-61 227v976h190v-976q0 -108 77 -185t185 -77t185 77t77 185v976h190v-976zM369 1665v0q-39 0 -67 28t-28 67q0 40 28 67.5t67 27.5q40 0 67.5 -27.5t27.5 -67.5q0 -39 -27.5 -67t-67.5 -28z
M655 1855v0q39 0 67 -27.5t28 -67.5q0 -39 -28 -67t-67 -28q-40 0 -67.5 28t-27.5 67q0 40 27.5 67.5t67.5 27.5z" />
    <glyph glyph-name="Yacute" unicode="&#xdd;" horiz-adv-x="1184" 
d="M910 1428v0h214l-437 -856v-572h-190v572l-437 856h214l318 -624zM618 1902v0l128 -62l-145 -247l-86 41z" />
    <glyph glyph-name="Thorn" unicode="&#xde;" horiz-adv-x="977" 
d="M426 1204v0q136 0 247 -66t177.5 -177.5t66.5 -246.5t-66.5 -246.5t-177.5 -177.5t-247 -66h-176v-224h-190v224v190v600v190v224h190v-224h176zM426 414v0q124 0 212 88t88 212t-88 212t-212 88h-176v-600h176z" />
    <glyph glyph-name="germandbls" unicode="&#xdf;" horiz-adv-x="1024" 
d="M795 734v0q78 -56 123.5 -142t45.5 -188q0 -111 -54.5 -203t-146.5 -146.5t-203 -54.5h-191v190h191q88 0 151 63t63 151q0 89 -63 152t-151 63h-48h-143h-2v190h2h143q89 0 151.5 63t62.5 151q0 89 -62.5 151.5t-151.5 62.5q-108 0 -185 -76.5t-77 -184.5v-1238h-190
v1238q0 124 61 227t164 164t227 61q112 0 203.5 -55t146.5 -146.5t55 -203.5q0 -85 -32.5 -159.5t-89.5 -129.5z" />
    <glyph glyph-name="agrave" unicode="&#xe0;" horiz-adv-x="1348" 
d="M1085 0v0l-140 381h-543l-139 -381h-203l524 1428h180l524 -1428h-203zM472 571v0h404l-202 550zM666 1598v0l-146 247l129 62l102 -268z" />
    <glyph glyph-name="aacute" unicode="&#xe1;" horiz-adv-x="1348" 
d="M1085 0v0l-140 381h-543l-139 -381h-203l524 1428h180l524 -1428h-203zM472 571v0h404l-202 550zM700 1902v0l128 -62l-145 -247l-86 41z" />
    <glyph glyph-name="acircumflex" unicode="&#xe2;" horiz-adv-x="1348" 
d="M1085 0v0l-140 381h-543l-139 -381h-203l524 1428h180l524 -1428h-203zM472 571v0h404l-202 550zM674 1898v0l185 -185l-84 -84l-101 101l-101 -101l-84 84z" />
    <glyph glyph-name="atilde" unicode="&#xe3;" horiz-adv-x="1348" 
d="M1085 0v0l-140 381h-543l-139 -381h-203l524 1428h180l524 -1428h-203zM472 571v0h404l-202 550zM605 1741v0q-16 6 -32.5 -7t-25.5 -26l-77 55q78 101 174 65q36 -19 59 -44v-1q4 -4 8 -7q15 -14 23 -16q15 -2 31 16.5t28 42.5l85 -42q-23 -46 -47.5 -70.5t-48 -33.5
t-43.5 -9q-16 0 -28 4q-22 6 -38.5 17t-26.5 21l-10 10q-17 17 -31 25z" />
    <glyph glyph-name="adieresis" unicode="&#xe4;" horiz-adv-x="1348" 
d="M1085 0v0l-140 381h-543l-139 -381h-203l524 1428h180l524 -1428h-203zM472 571v0h404l-202 550zM531 1665v0q-39 0 -67 28t-28 67q0 40 28 67.5t67 27.5q40 0 67.5 -27.5t27.5 -67.5q0 -39 -27.5 -67t-67.5 -28zM817 1855v0q39 0 67 -27.5t28 -67.5q0 -39 -28 -67
t-67 -28q-40 0 -67.5 28t-27.5 67q0 40 27.5 67.5t67.5 27.5z" />
    <glyph glyph-name="aring" unicode="&#xe5;" horiz-adv-x="1348" 
d="M1085 0v0l-140 381h-543l-139 -381h-203l524 1428h180l524 -1428h-203zM472 571v0h404l-202 550zM840 1751v0q0 -71 -49 -121t-117 -50q-69 0 -118 50t-49 121t49 121.5t118 50.5q68 0 117 -50.5t49 -121.5zM674 1675v0q29 0 50 22.5t21 53.5q0 32 -21 54.5t-50 22.5
q-30 0 -51 -22.5t-21 -54.5q0 -31 21 -53.5t51 -22.5z" />
    <glyph glyph-name="ae" unicode="&#xe6;" horiz-adv-x="1893" 
d="M1833 1428v0v-190h-680l33 -429h530h48v-190h-48h-516l33 -429h600v-190h-545h-73h-130l-123 381h-3h-302h-238l-156 -381h-203l574 1428h130h50h236h783zM657 571v0h244l-177 550l-226 -550h159z" />
    <glyph glyph-name="ccedilla" unicode="&#xe7;" horiz-adv-x="1143" 
d="M269 1218v0q102 102 232 156t273 54q163 0 309 -71v-221q-136 101 -309 101q-144 0 -263 -70.5t-190 -189.5t-71 -263q0 -145 71 -263.5t190 -189.5t263 -71q173 0 309 101v-221q-133 -65 -285 -70v-167h-191v186q-193 47 -338 190q-101 102 -155 232t-54 273t54 272.5
t155 231.5z" />
    <glyph glyph-name="egrave" unicode="&#xe8;" horiz-adv-x="953" 
d="M893 190v0v-190h-833v1428h831v-190h-641v-429h476h48v-190h-48h-476v-429h643zM467 1598v0l-146 247l129 62l102 -268z" />
    <glyph glyph-name="eacute" unicode="&#xe9;" horiz-adv-x="953" 
d="M893 190v0v-190h-833v1428h831v-190h-641v-429h476h48v-190h-48h-476v-429h643zM501 1902v0l128 -62l-145 -247l-86 41z" />
    <glyph glyph-name="ecircumflex" unicode="&#xea;" horiz-adv-x="953" 
d="M893 190v0v-190h-833v1428h831v-190h-641v-429h476h48v-190h-48h-476v-429h643zM475 1898v0l185 -185l-84 -84l-101 101l-101 -101l-84 84z" />
    <glyph glyph-name="edieresis" unicode="&#xeb;" horiz-adv-x="953" 
d="M893 190v0v-190h-833v1428h831v-190h-641v-429h476h48v-190h-48h-476v-429h643zM332 1665v0q-39 0 -67 28t-28 67q0 40 28 67.5t67 27.5q40 0 67.5 -27.5t27.5 -67.5q0 -39 -27.5 -67t-67.5 -28zM618 1855v0q39 0 67 -27.5t28 -67.5q0 -39 -28 -67t-67 -28
q-40 0 -67.5 28t-27.5 67q0 40 27.5 67.5t67.5 27.5z" />
    <glyph glyph-name="igrave" unicode="&#xec;" horiz-adv-x="310" 
d="M250 1428v0v-1428h-190v1428h190zM147 1598v0l-146 247l129 62l102 -268z" />
    <glyph glyph-name="iacute" unicode="&#xed;" horiz-adv-x="310" 
d="M250 1428v0v-1428h-190v1428h190zM181 1902v0l128 -62l-145 -247l-86 41z" />
    <glyph glyph-name="icircumflex" unicode="&#xee;" horiz-adv-x="310" 
d="M250 1428v0v-1428h-190v1428h190zM155 1898v0l185 -185l-84 -84l-101 101l-101 -101l-84 84z" />
    <glyph glyph-name="idieresis" unicode="&#xef;" horiz-adv-x="310" 
d="M250 1428v0v-1428h-190v1428h190zM12 1665v0q-39 0 -67 28t-28 67q0 40 28 67.5t67 27.5q40 0 67.5 -27.5t27.5 -67.5q0 -39 -27.5 -67t-67.5 -28zM298 1855v0q39 0 67 -27.5t28 -67.5q0 -39 -28 -67t-67 -28q-40 0 -67.5 28t-27.5 67q0 40 27.5 67.5t67.5 27.5z" />
    <glyph glyph-name="eth" unicode="&#xf0;" horiz-adv-x="1120" 
d="M346 1428v0q143 0 272.5 -54t231.5 -155q102 -102 156 -232t54 -273t-54 -273t-156 -232q-102 -101 -231.5 -155t-272.5 -54h-215v619h-71v190h71v619h215zM346 190v0q144 0 263 71t189.5 190t70.5 263t-70.5 263t-189.5 190t-263 71h-24v-429h333v-190h-333v-429h24z
" />
    <glyph glyph-name="ntilde" unicode="&#xf1;" horiz-adv-x="1120" 
d="M1060 1428v0v-1428h-250l-560 1120v-1120h-190v1428h249l560 -1120v1120h191zM491 1741v0q-16 6 -32.5 -7t-25.5 -26l-77 55q78 101 174 65q36 -19 59 -44v-1q4 -4 8 -7q15 -14 23 -16q15 -2 31 16.5t28 42.5l85 -42q-23 -46 -47.5 -70.5t-48 -33.5t-43.5 -9q-16 0 -28 4
q-22 6 -38.5 17t-26.5 21l-10 10q-17 17 -31 25z" />
    <glyph glyph-name="ograve" unicode="&#xf2;" 
d="M1240 210v0q-96 -99 -220 -153q-129 -57 -270 -57q-140 0 -270 57q-124 54 -219 153q-98 103 -149.5 232t-51.5 272t51.5 272t149.5 232q95 99 219 153q130 57 270 57q141 0 270 -57q124 -54 220 -153q97 -103 148.5 -232t51.5 -272t-51.5 -272t-148.5 -232zM750 190v0
q138 0 251.5 71t181 190t67.5 263t-67.5 263t-181 190t-251.5 71t-251.5 -71t-181 -190t-67.5 -263t67.5 -263t181 -190t251.5 -71zM742 1598v0l-146 247l129 62l102 -268z" />
    <glyph glyph-name="oacute" unicode="&#xf3;" 
d="M1240 210v0q-96 -99 -220 -153q-129 -57 -270 -57q-140 0 -270 57q-124 54 -219 153q-98 103 -149.5 232t-51.5 272t51.5 272t149.5 232q95 99 219 153q130 57 270 57q141 0 270 -57q124 -54 220 -153q97 -103 148.5 -232t51.5 -272t-51.5 -272t-148.5 -232zM750 190v0
q138 0 251.5 71t181 190t67.5 263t-67.5 263t-181 190t-251.5 71t-251.5 -71t-181 -190t-67.5 -263t67.5 -263t181 -190t251.5 -71zM776 1902v0l128 -62l-145 -247l-86 41z" />
    <glyph glyph-name="ocircumflex" unicode="&#xf4;" 
d="M1240 210v0q-96 -99 -220 -153q-129 -57 -270 -57q-140 0 -270 57q-124 54 -219 153q-98 103 -149.5 232t-51.5 272t51.5 272t149.5 232q95 99 219 153q130 57 270 57q141 0 270 -57q124 -54 220 -153q97 -103 148.5 -232t51.5 -272t-51.5 -272t-148.5 -232zM750 190v0
q138 0 251.5 71t181 190t67.5 263t-67.5 263t-181 190t-251.5 71t-251.5 -71t-181 -190t-67.5 -263t67.5 -263t181 -190t251.5 -71zM750 1898v0l185 -185l-84 -84l-101 101l-101 -101l-84 84z" />
    <glyph glyph-name="otilde" unicode="&#xf5;" 
d="M1240 210v0q-96 -99 -220 -153q-129 -57 -270 -57q-140 0 -270 57q-124 54 -219 153q-98 103 -149.5 232t-51.5 272t51.5 272t149.5 232q95 99 219 153q130 57 270 57q141 0 270 -57q124 -54 220 -153q97 -103 148.5 -232t51.5 -272t-51.5 -272t-148.5 -232zM750 190v0
q138 0 251.5 71t181 190t67.5 263t-67.5 263t-181 190t-251.5 71t-251.5 -71t-181 -190t-67.5 -263t67.5 -263t181 -190t251.5 -71zM681 1741v0q-16 6 -32.5 -7t-25.5 -26l-77 55q78 101 174 65q36 -19 59 -44v-1q4 -4 8 -7q15 -14 23 -16q15 -2 31 16.5t28 42.5l85 -42
q-23 -46 -47.5 -70.5t-48 -33.5t-43.5 -9q-16 0 -28 4q-22 6 -38.5 17t-26.5 21l-10 10q-17 17 -31 25z" />
    <glyph glyph-name="odieresis" unicode="&#xf6;" 
d="M1240 210v0q-96 -99 -220 -153q-129 -57 -270 -57q-140 0 -270 57q-124 54 -219 153q-98 103 -149.5 232t-51.5 272t51.5 272t149.5 232q95 99 219 153q130 57 270 57q141 0 270 -57q124 -54 220 -153q97 -103 148.5 -232t51.5 -272t-51.5 -272t-148.5 -232zM750 190v0
q138 0 251.5 71t181 190t67.5 263t-67.5 263t-181 190t-251.5 71t-251.5 -71t-181 -190t-67.5 -263t67.5 -263t181 -190t251.5 -71zM607 1665v0q-39 0 -67 28t-28 67q0 40 28 67.5t67 27.5q40 0 67.5 -27.5t27.5 -67.5q0 -39 -27.5 -67t-67.5 -28zM893 1855v0q39 0 67 -27.5
t28 -67.5q0 -39 -28 -67t-67 -28q-40 0 -67.5 28t-27.5 67q0 40 27.5 67.5t67.5 27.5z" />
    <glyph glyph-name="oslash" unicode="&#xf8;" 
d="M1169 1281v0q37 -29 71 -63q97 -103 148.5 -232t51.5 -272t-51.5 -272t-148.5 -232q-96 -99 -220 -153q-129 -57 -270 -57q-133 0 -257 51l-28 -51h-215l81 147q-37 29 -70 63q-98 103 -149.5 232t-51.5 272t51.5 272t149.5 232q95 99 219 153q130 57 270 57
q134 0 258 -51l28 51h214zM425 317v0l490 891q-78 30 -165 30q-138 0 -251.5 -71t-181 -190t-67.5 -263q0 -119 47 -221.5t128 -175.5zM750 190v0q138 0 251.5 71t181 190t67.5 263q0 119 -46.5 221.5t-127.5 175.5l-491 -891q79 -30 165 -30z" />
    <glyph glyph-name="ugrave" unicode="&#xf9;" horiz-adv-x="1024" 
d="M964 452v0q0 -124 -61 -227t-163.5 -164t-227.5 -61q-124 0 -227 61t-164 164t-61 227v976h190v-976q0 -108 77 -185t185 -77t185 77t77 185v976h190v-976zM504 1598v0l-146 247l129 62l102 -268z" />
    <glyph glyph-name="uacute" unicode="&#xfa;" horiz-adv-x="1024" 
d="M964 452v0q0 -124 -61 -227t-163.5 -164t-227.5 -61q-124 0 -227 61t-164 164t-61 227v976h190v-976q0 -108 77 -185t185 -77t185 77t77 185v976h190v-976zM538 1902v0l128 -62l-145 -247l-86 41z" />
    <glyph glyph-name="ucircumflex" unicode="&#xfb;" horiz-adv-x="1024" 
d="M964 452v0q0 -124 -61 -227t-163.5 -164t-227.5 -61q-124 0 -227 61t-164 164t-61 227v976h190v-976q0 -108 77 -185t185 -77t185 77t77 185v976h190v-976zM512 1898v0l185 -185l-84 -84l-101 101l-101 -101l-84 84z" />
    <glyph glyph-name="udieresis" unicode="&#xfc;" horiz-adv-x="1024" 
d="M964 452v0q0 -124 -61 -227t-163.5 -164t-227.5 -61q-124 0 -227 61t-164 164t-61 227v976h190v-976q0 -108 77 -185t185 -77t185 77t77 185v976h190v-976zM369 1665v0q-39 0 -67 28t-28 67q0 40 28 67.5t67 27.5q40 0 67.5 -27.5t27.5 -67.5q0 -39 -27.5 -67t-67.5 -28z
M655 1855v0q39 0 67 -27.5t28 -67.5q0 -39 -28 -67t-67 -28q-40 0 -67.5 28t-27.5 67q0 40 27.5 67.5t67.5 27.5z" />
    <glyph glyph-name="yacute" unicode="&#xfd;" horiz-adv-x="1184" 
d="M910 1428v0h214l-437 -856v-572h-190v572l-437 856h214l318 -624zM618 1902v0l128 -62l-145 -247l-86 41z" />
    <glyph glyph-name="thorn" unicode="&#xfe;" horiz-adv-x="977" 
d="M426 1204v0q136 0 247 -66t177.5 -177.5t66.5 -246.5t-66.5 -246.5t-177.5 -177.5t-247 -66h-176v-224h-190v224v190v600v190v224h190v-224h176zM426 414v0q124 0 212 88t88 212t-88 212t-212 88h-176v-600h176z" />
    <glyph glyph-name="ydieresis" unicode="&#xff;" horiz-adv-x="1184" 
d="M910 1428v0h214l-437 -856v-572h-190v572l-437 856h214l318 -624zM449 1665v0q-39 0 -67 28t-28 67q0 40 28 67.5t67 27.5q40 0 67.5 -27.5t27.5 -67.5q0 -39 -27.5 -67t-67.5 -28zM735 1855v0q39 0 67 -27.5t28 -67.5q0 -39 -28 -67t-67 -28q-40 0 -67.5 28t-27.5 67
q0 40 27.5 67.5t67.5 27.5z" />
    <glyph glyph-name="dotlessi" unicode="&#x131;" horiz-adv-x="310" 
d="M250 1428v0v-1428h-190v1428h190z" />
    <glyph glyph-name="gravecomb" unicode="&#x300;" horiz-adv-x="351" 
d="M206 1128v0l-146 247l129 62l102 -268z" />
    <glyph glyph-name="acutecomb" unicode="&#x301;" horiz-adv-x="351" 
d="M163 1432v0l128 -62l-145 -247l-86 41z" />
    <glyph glyph-name="uni0302" unicode="&#x302;" horiz-adv-x="490" 
d="M245 1428v0l185 -185l-84 -84l-101 101l-101 -101l-84 84z" />
    <glyph glyph-name="tildecomb" unicode="&#x303;" horiz-adv-x="528" 
d="M195 1271v0q-16 6 -32.5 -7t-25.5 -26l-77 55q78 101 174 65q36 -19 59 -44v-1q4 -4 8 -7q15 -14 23 -16q15 -2 31 16.5t28 42.5l85 -42q-23 -46 -47.5 -70.5t-48 -33.5t-43.5 -9q-16 0 -28 4q-22 6 -38.5 17t-26.5 21l-10 10q-17 17 -31 25z" />
    <glyph glyph-name="uni0308" unicode="&#x308;" horiz-adv-x="596" 
d="M155 1195v0q-39 0 -67 28t-28 67q0 40 28 67.5t67 27.5q40 0 67.5 -27.5t27.5 -67.5q0 -39 -27.5 -67t-67.5 -28zM441 1385v0q39 0 67 -27.5t28 -67.5q0 -39 -28 -67t-67 -28q-40 0 -67.5 28t-27.5 67q0 40 27.5 67.5t67.5 27.5z" />
    <glyph glyph-name="uni030A" unicode="&#x30a;" horiz-adv-x="453" 
d="M393 1281v0q0 -71 -49 -121t-117 -50q-69 0 -118 50t-49 121t49 121.5t118 50.5q68 0 117 -50.5t49 -121.5zM227 1205v0q29 0 50 22.5t21 53.5q0 32 -21 54.5t-50 22.5q-30 0 -51 -22.5t-21 -54.5q0 -31 21 -53.5t51 -22.5z" />
    <glyph glyph-name="quoteleft" unicode="&#x2018;" horiz-adv-x="263" 
d="M84 1146v0l-24 286h143l-24 -286h-95z" />
    <glyph glyph-name="quoteright" unicode="&#x2019;" horiz-adv-x="263" 
d="M84 1146v0l-24 286h143l-24 -286h-95z" />
    <glyph glyph-name="quotedblleft" unicode="&#x201c;" horiz-adv-x="453" 
d="M274 1146v0l-24 286h143l-24 -286h-95zM84 1146v0l-24 286h143l-24 -286h-95z" />
    <glyph glyph-name="quotedblright" unicode="&#x201d;" horiz-adv-x="453" 
d="M274 1146v0l-24 286h143l-24 -286h-95zM84 1146v0l-24 286h143l-24 -286h-95z" />
    <glyph glyph-name="Euro" unicode="&#x20ac;" horiz-adv-x="1262" 
d="M388 1219v0q102 101 232 155t273 54q163 0 309 -70v-222q-136 102 -309 102q-152 0 -275.5 -78.5t-190.5 -207.5h466v-190h-521q-3 -24 -3 -48t3 -48h480v-190h-425q67 -129 190.5 -207.5t275.5 -78.5q173 0 309 102v-222q-146 -70 -309 -70q-143 0 -273 54t-232 155
q-115 117 -169 267h-159v190h121q-2 24 -2 48t2 48h-80v190h118q54 150 169 267z" />
    <glyph glyph-name="minus" unicode="&#x2212;" horiz-adv-x="783" 
d="M60 621v0v190h663v-190h-663z" />
    </font>
</defs>
</svg>
