<?xml version="1.0" standalone="no"?>
<!DOCTYPE svg PUBLIC "-//W3C//DTD SVG 1.1//EN" "http://www.w3.org/Graphics/SVG/1.1/DTD/svg11.dtd" >
<svg xmlns="http://www.w3.org/2000/svg" xmlns:xlink="http://www.w3.org/1999/xlink" version="1.1">
<metadata>
Created by FontForge 20170924 at Wed Jul 31 13:37:36 2019
 By www-data
Typeface (c) (Tugcu Co.). 2019. All Rights Reserved
</metadata>
<defs>
<font id="Visage-Bold" horiz-adv-x="1504" >
  <font-face 
    font-family="Visage Bold"
    font-weight="400"
    font-stretch="normal"
    units-per-em="2048"
    panose-1="2 0 6 0 0 0 0 0 0 0"
    ascent="1638"
    descent="-410"
    x-height="1422"
    cap-height="1422"
    bbox="17 -416 1917 1940"
    underline-thickness="150"
    underline-position="-292"
    unicode-range="U+001D-2212"
  />
<missing-glyph horiz-adv-x="944" 
d="M60 0v1434h824v-1434h-824zM110 50h724v1334h-724v-1334zM285 1148q31 28 58 43q53 30 112 30q92 0 148 -47.5t56 -127.5q0 -49 -23 -98.5t-87 -129.5q-63 -80 -99 -132t-36 -99q0 -38 24 -133h-32q-35 97 -35 148q0 76 81.5 218t81.5 217q0 57 -33 90t-91 33
q-38 0 -69 -17q-26 -15 -56 -40v45zM349 334l57 58q11 10 20 10q10 0 22 -11l56 -60q9 -11 9 -20q0 -11 -10 -22l-56 -62q-14 -14 -21 -14q-11 0 -20 10l-61 71q-7 9 -7 18q0 10 11 22z" />
    <glyph glyph-name=".notdef" horiz-adv-x="944" 
d="M60 0v1434h824v-1434h-824zM110 50h724v1334h-724v-1334zM285 1148q31 28 58 43q53 30 112 30q92 0 148 -47.5t56 -127.5q0 -49 -23 -98.5t-87 -129.5q-63 -80 -99 -132t-36 -99q0 -38 24 -133h-32q-35 97 -35 148q0 76 81.5 218t81.5 217q0 57 -33 90t-91 33
q-38 0 -69 -17q-26 -15 -56 -40v45zM349 334l57 58q11 10 20 10q10 0 22 -11l56 -60q9 -11 9 -20q0 -11 -10 -22l-56 -62q-14 -14 -21 -14q-11 0 -20 10l-61 71q-7 9 -7 18q0 10 11 22z" />
    <glyph glyph-name=".notdef" horiz-adv-x="944" 
d="M60 0v1434h824v-1434h-824zM110 50h724v1334h-724v-1334zM285 1148q31 28 58 43q53 30 112 30q92 0 148 -47.5t56 -127.5q0 -49 -23 -98.5t-87 -129.5q-63 -80 -99 -132t-36 -99q0 -38 24 -133h-32q-35 97 -35 148q0 76 81.5 218t81.5 217q0 57 -33 90t-91 33
q-38 0 -69 -17q-26 -15 -56 -40v45zM349 334l57 58q11 10 20 10q10 0 22 -11l56 -60q9 -11 9 -20q0 -11 -10 -22l-56 -62q-14 -14 -21 -14q-11 0 -20 10l-61 71q-7 9 -7 18q0 10 11 22z" />
    <glyph glyph-name="space" unicode=" " horiz-adv-x="508" 
 />
    <glyph glyph-name="space" unicode="&#xa0;" horiz-adv-x="508" 
 />
    <glyph glyph-name="exclam" unicode="!" horiz-adv-x="490" 
d="M328 1422v0h100h2l-2 -102l-21 -872l-2 -98h-2h-96h-2h-120h-2h-96h-2l-2 98l-21 872l-2 102h2h100h3h160h3zM246 301v0q62 0 106.5 -44t44.5 -106q0 -63 -44.5 -107t-106.5 -44v0h-1h-1v0q-62 0 -106.5 44t-44.5 107q0 62 44.5 106t106.5 44v0h1h1v0z" />
    <glyph glyph-name="quotedbl" unicode="&#x22;" horiz-adv-x="606" 
d="M318 1426v0h228l-4 -52l-20 -244l-4 -44h-2h-42h-2h-79h-3h-41h-3l-3 44l-21 244zM60 1426v0h228l-4 -52l-21 -244l-3 -44h-3h-41h-2h-80h-2h-41h-3l-3 44l-21 244z" />
    <glyph glyph-name="numbersign" unicode="#" horiz-adv-x="1338" 
d="M1219 1030v0h45h2v-48v-163v-47h-2h-45h-3h-165l-42 -122h124h2h45h3v-48v-163v-48h-3h-45h-2h-215l-126 -359l-11 -32h-2h-31h-3h-196h-2h-65h-3l23 63l114 328h-117l-126 -359l-11 -32h-2h-32h-2h-197h-2h-65h-2l22 63l115 328h-79h-2h-45h-3v48v163v48h3h45h2h169
l43 122h-128h-2h-46h-2v47v163v48h2h46h2h219l125 358l11 32h2h32h2h196h3h64h3l-22 -64l-115 -326h118l125 358l11 32h3h31h2h197h2h65h2l-22 -64l-114 -326h74h3zM707 650v0l43 122h-118l-43 -122h118z" />
    <glyph glyph-name="dollar" unicode="$" horiz-adv-x="1112" 
d="M766 790v0q188 -82 244 -234q42 -126 -27 -255q-96 -168 -323 -205v-72v-24h-2h-21h-3h-164h-2h-21h-3v24v74q-50 10 -100 26q-105 37 -211 109q-11 8 -23 16q-6 4 -11 8l-39 27l27 39l103 147l27 39l2 -1l1 1l39 -27q6 -5 12 -9q10 -7 19 -13q80 -55 154 -79v229
q-65 22 -129 55t-122 85q-130 129 -83 297q34 102 131 174q93 66 203 95v81v24h3h21h2h164h3h21h2v-24v-68q69 -9 131 -33q86 -33 146 -93l-31 -36h-1v1v0v-1h1l-147 -179v1h-1v1l-2 -2v1q-30 46 -96 60v-220q53 -17 106 -39zM382 952v0q27 -25 62 -43v114q-21 -11 -39 -24
q-28 -22 -31 -35q0 -2 2.5 -5.5t5.5 -6.5zM748 466v0q-10 32 -88 70v-159q52 14 80 57q6 10 7.5 16.5t1.5 10.5t-1 5z" />
    <glyph glyph-name="percent" unicode="%" horiz-adv-x="1682" 
d="M1289 1422v0l-46 -133l-428 -1222l-23 -67h-3h-68h-3h-181h-2h-139h-2l47 133l427 1222l24 67h2h69h2h181h3h138h2zM668 925v0q0 -128 -88.5 -219.5t-214.5 -91.5v0h-1v0h-1q-125 0 -214 91.5t-89 219.5q0 129 89 220t214 91h1v0h1v0q126 0 214.5 -91t88.5 -220zM321 925
v0q0 -21 12.5 -36t30.5 -17q19 2 31.5 17t12.5 36q0 22 -12.5 37t-31.5 16q-18 -1 -30.5 -16t-12.5 -37zM1319 808v0q125 0 214 -91t89 -220q0 -128 -89 -219.5t-214 -91.5h-1v0h-1h-1q-125 0 -214 91.5t-89 219.5q0 129 89 220t214 91h1h1v0h1zM1274 497v0q0 -21 12.5 -36
t31.5 -16q18 1 30.5 16t12.5 36q0 22 -12.5 37t-30.5 16q-19 -1 -31.5 -16t-12.5 -37z" />
    <glyph glyph-name="ampersand" unicode="&#x26;" horiz-adv-x="1385" 
d="M1030 362v0q62 -76 126 -154l169 -208h-2h-364h-3l-23 29l-82 100q-25 -22 -52 -40q-109 -73 -226 -86q-23 -3 -46 -3h-1v0h-1v0q-123 1 -232 64q-135 81 -189 220q-44 118 -3 236q41 115 154 201q34 26 68 45q-7 9 -13 16q-124 156 -116 311q7 112 81 202q76 89 184 116
q39 10 79 10q142 0 252 -96q126 -120 128 -298q-4 -162 -114 -288q-21 -24 -46 -46q33 -40 67 -81q14 31 28.5 63t19.5 49h2v0v0l53 -13v0l110 -28v0v0l53 -14v0l53 -13q-14 -54 -48 -140.5t-66 -153.5zM597 1115v0q-24 21 -55 22q-7 0 -13 -2q-19 -5 -33 -22t-16 -36v0
q-2 -16 9 -44.5t45 -72.5q18 -22 39 -48q9 8 16 15q41 47 42 103q0 52 -34 85zM372 384v0q18 -44 61 -71.5t94 -28.5q7 1 13 1q65 8 131 65q-29 35 -58 69q-1 2 -2 3l-1 2q-43 51 -85 103q-7 8 -15 17q-46 -23 -81 -49q-77 -59 -57 -111z" />
    <glyph glyph-name="quotesingle" unicode="'" horiz-adv-x="348" 
d="M60 1426v0h228l-4 -52l-21 -244l-3 -44h-3h-41h-2h-80h-2h-41h-3l-3 44l-21 244z" />
    <glyph glyph-name="parenleft" unicode="(" horiz-adv-x="564" 
d="M456 1853v0h46h2v-48v-163v-47h-2h-46q-56 0 -95.5 -40t-39.5 -96v-1481q0 -56 39.5 -96t95.5 -40h46h2v-47v-163v-48h-2h-46h-2q-109 0 -198.5 53t-142.5 142.5t-53 198.5v1481q0 109 53 198t142.5 142.5t198.5 53.5h2z" />
    <glyph glyph-name="parenright" unicode=")" horiz-adv-x="564" 
d="M108 1853h2q109 0 198 -53.5t142.5 -142.5t53.5 -198v-1481q0 -109 -53.5 -198.5t-142.5 -142.5t-198 -53h-2h-46h-2v48v163v47h2h46q56 0 95.5 40t39.5 96v1481q0 56 -39.5 96t-95.5 40h-46h-2v47v163v48h2h46v0z" />
    <glyph glyph-name="plus" unicode="+" horiz-adv-x="740" 
d="M678 814v0h2v-24v-163v-23v-4h-2h-22h-2h-177v-180v-24h-3h-21h-3h-160h-3h-21h-2v4v24v176h-178h-2h-22h-2v23v163v24v4h2h22h2h178v180v24h2h21h3h160h3h21h3v-4v-24v-176h177h2h22z" />
    <glyph glyph-name="comma" unicode="," horiz-adv-x="427" 
d="M216 302v0q44 0 81 -23.5t56 -64.5q14 -32 13 -65q-7 -57 -31 -94q0 -1 -1 -1q-1 -2 -2 -5q-35 -68 -67 -124q-16 -30 -34 -64l-27 -50l-2 1v-1l-55 17l-7 3l-57 18l10 58l20 133q-53 49 -50 123q6 57 44.5 95.5t95.5 43.5h10h1v0h1h1z" />
    <glyph glyph-name="hyphen" unicode="-" horiz-adv-x="740" 
d="M678 822v0h2v-4v-24v-163v-24h-2h-22h-2h-568h-2h-22h-2v4v24v163v24h2h616z" />
    <glyph glyph-name="hyphen" unicode="&#xad;" horiz-adv-x="740" 
d="M678 822v0h2v-4v-24v-163v-24h-2h-22h-2h-568h-2h-22h-2v4v24v163v24h2h616z" />
    <glyph glyph-name="period" unicode="." horiz-adv-x="423" 
d="M213 301v0q62 0 106 -44t44 -106q0 -63 -44 -107t-106 -44h-1v0h-1v0q-63 0 -107 44t-44 107q0 62 44 106t107 44v0h1v0h1z" />
    <glyph glyph-name="slash" unicode="/" horiz-adv-x="1015" 
d="M955 1422v0l-46 -133l-428 -1222l-23 -67h-3h-68h-3h-181h-2h-139h-2l47 133l427 1222l24 67h2h69h2h181h2h139h2z" />
    <glyph glyph-name="zero" unicode="0" 
d="M1244 211v0q-95 -99 -220 -154q-130 -57 -271 -57v0h-1h-1v0q-141 0 -272 57q-124 55 -219 154q-97 101 -148.5 230t-51.5 270q0 142 51.5 270.5t148.5 229.5q95 100 219 154q131 57 272 57v0h1h1v0q141 0 271 -57q125 -54 220 -154q97 -101 148.5 -229.5t51.5 -270.5
q0 -141 -51.5 -270t-148.5 -230zM425 711v0q0 -144 94 -244t233 -104q139 4 233 104t94 244t-94 244t-233 104q-139 -4 -233 -104t-94 -244z" />
    <glyph glyph-name="one" unicode="1" horiz-adv-x="835" 
d="M675 1422v0h97h3v-100v-1222v-100h-3h-97h-3h-160h-3h-97h-2v100v803l-32 -24l-82 -62l-1 1l-1 -1l-60 84l-115 163l-59 83l84 58l296 200l25 17h3h28h2h174h3zM317 960v0v0v0v0v0z" />
    <glyph glyph-name="two" unicode="2" horiz-adv-x="1083" 
d="M1020 363v0h3v-100v-163v-100h-3h-97h-3h-676h-3h-179h-2l97 153l457 725l1 2l2 2q20 29 20 64q0 47 -33 80t-80 33h-274h-2h-98h-2v100v163v100h2h98h2h274h2q131 0 239.5 -64t172.5 -172t64 -240q0 -145 -83 -269l-187 -314h288z" />
    <glyph glyph-name="three" unicode="3" horiz-adv-x="974" 
d="M468 1422v0q123 0 224.5 -60t161.5 -161.5t60 -224.5q0 -149 -87 -265q87 -116 87 -265q0 -123 -60 -224t-161.5 -161.5t-224.5 -60.5h-2h-304h-2h-98h-2v100v163v100h2h98h2h304q34 0 58.5 24.5t24.5 58.5q0 35 -24.5 59.5t-58.5 24.5h-100h-2h-39h-2h-57h-2h-39h-2v100
v163v100h2h39h2h57h2h39h2h100q34 0 58.5 24.5t24.5 58.5q0 35 -24.5 59t-58.5 24h-304h-2h-98h-2v100v163v100h2h98h2h304h2z" />
    <glyph glyph-name="four" unicode="4" horiz-adv-x="1119" 
d="M975 859v0h81h3v-83v-693v-83h-3h-81h-2h-161h-2h-81h-2v83v304h-519h-2h-144h-2l53 136l322 835l25 64h2h67h2h172h3h143h2l-52 -136l-207 -536h135v26v83h2h81h2h161h2z" />
    <glyph glyph-name="five" unicode="5" horiz-adv-x="974" 
d="M437 954v0q132 0 240 -64.5t172.5 -173t64.5 -239.5q0 -132 -64.5 -240t-172.5 -172.5t-240 -64.5h-2h-273h-2h-98h-2v100v163v100h2h98h2h273q47 0 80.5 33.5t33.5 80.5t-33.5 80.5t-80.5 33.5h-273h-2h-98h-2v100v631v100h2h98h2h609h3h97h3v-100v-163v-100h-3h-97h-3
h-346v-105h10h2z" />
    <glyph glyph-name="six" unicode="6" horiz-adv-x="1086" 
d="M544 924v0q133 0 242.5 -62.5t174.5 -167.5t65 -232q0 -128 -65 -232.5t-174.5 -167t-242.5 -62.5v0h-1v0h-1q-131 0 -239 60.5t-173 161.5t-70 227v0v384q0 236 172 417q181 172 417 172h2h185h2v-363h-2h-185q-72 0 -129 -40.5t-82 -105.5q49 11 102 11h1v0h1v0z
M420 462v0q0 -48 35.5 -82t87.5 -35q53 1 88 35t35 82t-35 81.5t-88 35.5q-52 -2 -87.5 -35.5t-35.5 -81.5z" />
    <glyph glyph-name="seven" unicode="7" horiz-adv-x="1132" 
d="M1072 1422v0l-48 -133l-438 -1223l-23 -66h-3h-68h-2h-171h-2h-140h-2l48 134l331 925h-392h-2h-98h-2v100v163v100h2h98h2h766h2h140h2z" />
    <glyph glyph-name="eight" unicode="8" horiz-adv-x="1176" 
d="M956 838v0q160 -150 160 -350t-160 -350q-160 -138 -367 -138v0h-1v0h-1q-207 0 -367 138q-160 150 -160 350t160 350q26 23 54 43q-54 83 -54 185q0 98 49.5 178.5t133 128.5t184.5 48h1v0h1v0q102 0 185 -48t132.5 -128.5t49.5 -178.5q0 -102 -54 -185q29 -20 54 -43z
M648 1066v0q0 19 -17.5 33.5t-42.5 15.5q-25 -1 -42.5 -15.5t-17.5 -33.5q0 -20 17.5 -34t42.5 -15q25 1 42.5 15t17.5 34zM469 398v0q49 -42 119 -43q70 1 119 43q44 41 44 90t-44 90q-49 42 -119 43q-70 -1 -119 -43q-44 -41 -44 -90t44 -90z" />
    <glyph glyph-name="nine" unicode="9" horiz-adv-x="1091" 
d="M547 1424v0q131 0 239.5 -64.5t174 -173.5t70.5 -244v0v-100v-742v-100h-2h-98h-2h-161h-2h-98h-2v100v347q-58 -16 -119 -16h-1h-1v0h-1q-133 0 -243 67.5t-175.5 180t-65.5 249.5t65.5 249.5t175.5 179.5t243 67h1h1v0h1zM546 794v0q51 2 85.5 40.5t34.5 93.5t-34.5 93
t-85.5 40q-52 -2 -86.5 -40t-34.5 -93t34.5 -93.5t86.5 -40.5z" />
    <glyph glyph-name="colon" unicode=":" horiz-adv-x="423" 
d="M213 301v0q62 0 106 -44t44 -106q0 -63 -44 -107t-106 -44h-1v0h-1v0q-63 0 -107 44t-44 107q0 62 44 106t107 44v0h1v0h1zM213 671v0q62 0 106 -44t44 -106q0 -63 -44 -107t-106 -44h-1v0h-1v0q-63 0 -107 44t-44 107q0 62 44 106t107 44v0h1v0h1zM212 602v0v0v0v0v0v0
v0z" />
    <glyph glyph-name="semicolon" unicode=";" horiz-adv-x="427" 
d="M216 672v0q62 0 106.5 -44t44.5 -106t-44.5 -106.5t-106.5 -44.5h-1v0h-1v0q-63 0 -107 44.5t-44 106.5t44 106t107 44v0h1v0h1zM215 603v0v0v0v0v0v0v0zM216 302v0q44 0 81 -23.5t56 -64.5q14 -32 13 -65q-7 -57 -31 -94q0 -1 -1 -1q-1 -2 -2 -5q-35 -68 -67 -124
q-16 -30 -34 -64l-27 -50l-2 1v-1l-55 17l-7 3l-57 18l10 58l20 133q-53 49 -50 123q6 57 44.5 95.5t95.5 43.5h10h1v0h1h1z" />
    <glyph glyph-name="equal" unicode="=" horiz-adv-x="740" 
d="M678 974v0h2v-4v-24v-163v-24h-2h-22h-2h-568h-2h-22h-2v4v24v163v24h2h616zM678 690v0h2v-4v-24v-163v-24h-2h-22h-2h-568h-2h-22h-2v4v24v163v24h2h616z" />
    <glyph glyph-name="question" unicode="?" horiz-adv-x="917" 
d="M462 301v0q63 0 107 -44t44 -106q0 -63 -44 -107t-107 -44v0h-1v0h-1q-62 0 -106.5 44t-44.5 107q0 62 44.5 106t106.5 44h1v0h1v0zM461 1422v0q110 -2 199.5 -55t143 -143.5t53.5 -199.5v-12q0 -135 -87 -249q-73 -90 -182 -128l-20 -270h-2h-214h-2l-28 511h2h132
q56 0 96 40t40 96v12q0 55 -38.5 94t-94.5 41q-57 -2 -95.5 -41t-38.5 -94h-2h-48h-2h-48h-2h-61h-2h-48h-2h-48h-2q0 109 53.5 199.5t143 143.5t199.5 55v0h2v0h1v0v0v0h2z" />
    <glyph glyph-name="at" unicode="@" horiz-adv-x="1480" 
d="M1223 1196v0q96 -100 146.5 -227.5t50.5 -266.5q0 -140 -50.5 -267.5t-146.5 -227.5q-94 -97 -216 -151q-1 -1 -3 -2v0h-2l-20 -9v1l-2 -1l-11 19q-34 67 -56 139t-28 102v1h-1q-2 12 -4 25q-7 37 -12 84q-71 -40 -152 -40v0h-1v0h-1q-131 0 -224 96t-93 231t93 230.5
t224 95.5h1v0h1v0q69 0 133 -30v23h2v0h24l136 -4h24l-1 -24q-1 -6 -1.5 -105.5t4.5 -236.5q9 -201 24 -280q129 144 129 331q0 130 -61 237t-162 170.5t-227 65.5q-125 -2 -226.5 -65.5t-162 -170.5t-60.5 -237q0 -131 60.5 -238t162 -170.5t226.5 -65.5h8l19 1h1h2l4 -19
q20 -92 55 -174l12 -29l-32 -4q-34 -3 -68 -3v0h-1v0h-1q-138 0 -266 56q-122 54 -216 151q-96 100 -146.5 227.5t-50.5 267.5q0 139 50.5 266.5t146.5 227.5q94 98 216 151q128 56 266 56h1v0h1v0q139 0 266 -56q122 -53 216 -151zM582 702v0q0 -59 38.5 -100.5t94.5 -43.5
q57 2 95 43.5t38 100.5t-38 100t-95 43q-56 -2 -94.5 -43t-38.5 -100z" />
    <glyph glyph-name="A" unicode="A" horiz-adv-x="1460" 
d="M1350 134v0l50 -134h-3h-140h-3h-171h-2h-68h-2l-24 66l-35 93h-445l-34 -93l-24 -66h-2h-68h-2h-172h-2h-141h-2l49 134l448 1223l25 65h2h292h2l24 -65zM640 522v0h179l-89 244z" />
    <glyph glyph-name="B" unicode="B" horiz-adv-x="1096" 
d="M985 654v0q51 -99 51 -208q0 -123 -60 -224t-161.5 -161.5t-224.5 -60.5h-2h-426h-2h-98h-2v100v1222v100h2h98h2h385h2q123 0 224.5 -60t162 -161.5t60.5 -224.5q0 -92 -37 -176q-13 -32 -32 -61q34 -40 58 -85zM547 1059v0h-122v-166h122q35 0 59 24.5t24 58.5
q0 35 -24 59t-59 24zM425 363v0h163q34 0 58.5 24.5t24.5 58.5q0 35 -24.5 59.5t-58.5 24.5h-163v-167z" />
    <glyph glyph-name="C" unicode="C" horiz-adv-x="1201" 
d="M771 0v0q-142 0 -271.5 53.5t-231.5 154.5q-101 102 -154.5 231.5t-53.5 271.5q0 143 53.5 272t154.5 231q102 101 231.5 154.5t271.5 53.5h1h1v0h1v0h1v0h1q162 0 308 -70l57 -27v-63v-189v-119l-2 2l-1 1v-3q-116 135 -310 141q-112 -2 -202.5 -53t-144.5 -138
t-54 -192q0 -106 54 -193t144.5 -138t202.5 -52q194 6 310 140v-2q1 0 1 1q1 1 2 1v-119v-190v-63l-57 -27q-146 -70 -308 -70h-1v0h-1v0h-1v0h-1h-1z" />
    <glyph glyph-name="D" unicode="D" horiz-adv-x="1117" 
d="M160 0v0h-98h-2v100v1222v100h2h98h2h181h3q142 0 271.5 -53.5t231.5 -154.5q101 -102 154.5 -231t53.5 -272q0 -142 -53.5 -271.5t-154.5 -231.5q-102 -101 -231.5 -154.5t-271.5 -53.5h-3h-181h-2zM692 711v0q0 123 -75 216t-192 123v-677q117 30 192 122.5t75 215.5z
" />
    <glyph glyph-name="E" unicode="E" horiz-adv-x="1035" 
d="M160 0v0h-98h-2v100v1222v100h2h98h2h709h2h98h2v-100v-163v-100h-2h-98h-2h-446v-166h258h2h39h2h57h2h39h2v-100v-163v-100h-2h-39h-2h-57h-2h-39h-2h-258v-167h448h2h98h2v-100v-163v-100h-2h-98h-2h-711h-2z" />
    <glyph glyph-name="F" unicode="F" horiz-adv-x="1033" 
d="M160 0v0h-98h-2v100v1222v100h2h98h2h709h2h98h2v-100v-163v-100h-2h-98h-2h-446v-166h258h2h39h2h57h2h39h2v-100v-163v-100h-2h-39h-2h-57h-2h-39h-2h-258v-430v-100h-2h-98h-2h-161h-2z" />
    <glyph glyph-name="G" unicode="G" horiz-adv-x="1201" 
d="M771 0v0q-142 0 -271.5 53.5t-231.5 154.5q-101 102 -154.5 231.5t-53.5 271.5q0 143 53.5 272t154.5 231q102 101 231.5 154.5t271.5 53.5h1h1v0h1v0h1v0h1q162 0 308 -70l57 -27v-63v-189v-119l-2 2l-1 1v-3q-116 135 -310 141q-112 -2 -202.5 -53t-144.5 -138
t-54 -192q0 -100 49 -184t131.5 -136t186.5 -62v200h-53h-2h-88h-3v90v163v91h3h88h2h307h2h88h2v-91v-314h1v0v-119v-190v-63l-57 -27q-146 -70 -308 -70h-1v0h-1v0h-1v0h-1h-1z" />
    <glyph glyph-name="H" unicode="H" horiz-adv-x="1168" 
d="M323 0v0h-161h-2h-98h-2v100v1222v100h2h98h2h161h2h98h2v-100v-429h318v429v100h2h98h2h161h2h98h2v-100v-1222v-100h-2h-98h-2h-161h-2h-98h-2v100v430h-318v-430v-100h-2h-98h-2z" />
    <glyph glyph-name="I" unicode="I" horiz-adv-x="485" 
d="M160 0v0h-98h-2v100v1222v100h2h98h2h161h2h98h2v-100v-1222v-100h-2h-98h-2h-161h-2z" />
    <glyph glyph-name="J" unicode="J" horiz-adv-x="791" 
d="M160 0v0h-98h-2v100v163v100h2h98h2h120q35 0 59.5 24.5t24.5 58.5v43v57v43v733v100h2h98h2h161h2h98h2v-100v-733v-43v-57v-43q0 -123 -60.5 -224t-161.5 -161.5t-224 -60.5h-3h-120h-2z" />
    <glyph glyph-name="K" unicode="K" horiz-adv-x="1280" 
d="M160 0v0h-98h-2v100v1222v100h2h98h2h161h2h98h2v-100v-237l274 304l30 33h2h43h2h217h2h222h3l-150 -167l-421 -467l426 -632l105 -156h-2h-186h-2h-194h-3h-50h-3l-30 44l-285 423v-367v-100h-2h-98h-2h-161h-2z" />
    <glyph glyph-name="L" unicode="L" horiz-adv-x="1015" 
d="M160 0v0h-98h-2v100v1222v100h2h98h2h161h2h98h2v-100v-959h428h2h98h2v-100v-163v-100h-2h-98h-2h-691h-2z" />
    <glyph glyph-name="M" unicode="M" horiz-adv-x="1552" 
d="M160 0v0h-98h-2v100v1222v100h2h98h2h217h2h65h2l26 -62l302 -738l302 738l25 62h3h64h3h216h3h97h3v-100v-1222v-100h-3h-97h-3h-160h-3h-97h-3v100v402l-180 -440l-26 -62h-2h-65h-2h-150h-3h-64h-3l-25 62l-181 440v-402v-100h-2h-98h-2h-161h-2z" />
    <glyph glyph-name="N" unicode="N" horiz-adv-x="1178" 
d="M1018 0v0h-2h-211h-3h-59h-2l-28 55l-288 575v-530v-100h-2h-98h-2h-161h-2h-98h-2v100v1222v100h2h98h2h211h3h59h2l28 -55l288 -575v530v100h2h98h2h161h2h98h2v-100v-1222v-100h-2h-98z" />
    <glyph glyph-name="O" unicode="O" 
d="M1244 211v0q-95 -99 -220 -154q-130 -57 -271 -57v0h-1h-1v0q-141 0 -272 57q-124 55 -219 154q-97 101 -148.5 230t-51.5 270q0 142 51.5 270.5t148.5 229.5q95 100 219 154q131 57 272 57v0h1h1v0q141 0 271 -57q125 -54 220 -154q97 -101 148.5 -229.5t51.5 -270.5
q0 -141 -51.5 -270t-148.5 -230zM425 711v0q0 -144 94 -244t233 -104q139 4 233 104t94 244t-94 244t-233 104q-139 -4 -233 -104t-94 -244z" />
    <glyph glyph-name="P" unicode="P" horiz-adv-x="1056" 
d="M325 0v0h-2h-161h-2h-98h-2v100v1222v100h2h98h2h324h2q140 0 255.5 -68.5t184 -183.5t68.5 -255t-68.5 -255t-184 -184t-255.5 -69h-2h-61v-307v-100h-2h-98zM486 1059v0h-61v-289h61q60 0 102 42.5t42 102.5t-42 102t-102 42z" />
    <glyph glyph-name="Q" unicode="Q" 
d="M479 59v0q-124 55 -219 154q-97 102 -148.5 230.5t-51.5 270.5q0 141 51.5 269.5t148.5 230.5q95 99 219 154q131 57 272 57v0h1h1v0q141 0 271 -57q125 -55 220 -154q97 -102 148.5 -230.5t51.5 -269.5q0 -142 -51.5 -270.5t-148.5 -230.5l-8 -8l-1 -1l85 -131l48 -73
h-3h-85h-2h-194h-3h-23h-3l-14 22l-22 35q-128 -55 -266 -55v0h-1h-1v0q-141 0 -272 57zM950 604v0h24h2l14 -21l37 -57q52 84 52 188q0 143 -94 243.5t-233 104.5q-139 -4 -233 -104.5t-94 -243.5q0 -144 94 -244t233 -105q32 0 62 7l-103 159l-47 73h2h85h3h194h2z" />
    <glyph glyph-name="R" unicode="R" horiz-adv-x="1177" 
d="M1117 0v0h-2h-186h-2h-194h-3h-51h-2l-30 44l-222 330v-274v-100h-2h-98h-2h-161h-2h-98h-2v100v1222v100h2h98h2h324h2q140 0 255.5 -68.5t184 -183.5t68.5 -255q0 -129 -58.5 -237t-157.5 -178l232 -344zM486 1059v0h-61v-289h61q60 0 102 42.5t42 102.5t-42 102
t-102 42z" />
    <glyph glyph-name="S" unicode="S" horiz-adv-x="1194" 
d="M609 0v0v0v0q-113 -1 -224 41q-108 41 -214 124q-11 8 -23 18l-10 8l-78 62l62 78l101 128l63 78l1 -1l1 1l1 -1l1 1l79 -62l12 -10q9 -7 17 -13q114 -89 208 -89q9 0 17 1q42 4 77 24q20 10 34 27q11 13 11 30q-3 21 -21 32q-20 13 -43 20q-5 1 -9 3q-29 10 -59 19
q-2 0 -4 1q-34 10 -71 23l-3 1q-100 30 -207 92q-60 38 -103 87q-50 58 -76 130q-36 99 -14 205q19 92 78 169q70 91 182 143q109 50 232 52v0h1v0h1h1h1v0q135 0 243 -60t182 -170q3 -4 11.5 -17t19.5 -30l-250 -214l-1 1h-1l-1 -1q-5 6 -11.5 12t-10.5 10q-3 4 -4 5
q-14 13 -27 27q-30 38 -75 61q-35 16 -74 16q-22 0 -43 -5q-28 -6 -56.5 -22.5t-36.5 -45.5q-3 -17 7 -28.5t24 -18.5q55 -31 117 -50l150 -50q80 -26 150 -72q111 -79 152 -213q38 -132 -10 -258q-54 -134 -181 -215q-109 -68 -242 -81q-24 -3 -49 -3h-1v0h-1h-1h-1h-1z
M632 1322v0h-1v0v0v0h1z" />
    <glyph glyph-name="T" unicode="T" horiz-adv-x="1178" 
d="M160 1059v0h-98h-2v100v163v100h2h98h2h244h3h97h3h160h3h97h3h244h2h98h2v-100v-163v-100h-2h-98h-2h-244v-959v-100h-3h-97h-3h-160h-3h-97h-3v100v959h-244h-2z" />
    <glyph glyph-name="U" unicode="U" horiz-adv-x="1096" 
d="M548 0v0v0h-1q-134 0 -244.5 66t-176.5 176.5t-66 244.5v835v100h2h98h2h161h2h98h2v-100v-835q0 -51 35.5 -86.5t87.5 -37.5q52 2 87.5 37.5t35.5 86.5v835v100h3h97h3h160h3h97h2v-100v-835q0 -134 -65.5 -244.5t-176 -176.5t-245.5 -66v0h-1z" />
    <glyph glyph-name="V" unicode="V" horiz-adv-x="1460" 
d="M1400 1422v0l-50 -134l-448 -1222l-24 -66h-2h-68h-2h-152h-3h-67h-2l-25 66l-448 1222l-49 134h2h141h2h172h2h68h2l24 -65l257 -701l257 701l24 65h2h68h2h171h3h140h3z" />
    <glyph glyph-name="W" unicode="W" horiz-adv-x="1977" 
d="M557 66v0l-448 1222l-49 134h2h141h2h172h2h68h2l24 -65l242 -661l89 328l20 74h2h74h3h171h3h74h2l20 -74l89 -328l242 661l24 65h3h67h2h172h2h141h2l-49 -134l-448 -1222l-24 -66h-3h-67h-3h-152h-2h-74h-2l-21 74l-83 305l-84 -305l-20 -74h-3h-74h-2h-152h-3h-67h-2
z" />
    <glyph glyph-name="X" unicode="X" horiz-adv-x="1412" 
d="M927 0v0h-2l-29 48l-190 312l-190 -312l-29 -48h-2h-54h-2h-189h-2h-176h-2l92 152l340 559l-340 559l-92 152h2h176h2h189h2h54h2l29 -48l190 -312l190 312l29 48h2h54h3h188h2h176h2l-92 -152l-340 -559l340 -559l92 -152h-2h-176h-2h-188h-3h-54zM706 870v0v0v0v0v0z
" />
    <glyph glyph-name="Y" unicode="Y" horiz-adv-x="1359" 
d="M762 0v0h-2h-161h-2h-98h-2v100v466l-363 711l-74 145h2h161h3h180h3h58h3l28 -54l182 -357l182 357l28 54h2h59h2h181h2h161h2l-74 -145l-363 -711v-466v-100h-2h-98z" />
    <glyph glyph-name="Z" unicode="Z" horiz-adv-x="1270" 
d="M225 0v0h-163h-2l76 146l474 913h-351h-2h-98h-2v100v163v100h2h98h2h784h2h162h3l-76 -146l-474 -913h351h2h98h2v-100v-163v-100h-2h-98h-2h-784h-2z" />
    <glyph glyph-name="underscore" unicode="_" horiz-adv-x="740" 
d="M678 215v0h2v-4v-24v-163v-24h-2h-22h-2h-568h-2h-22h-2v4v24v163v24h2h616z" />
    <glyph glyph-name="grave" unicode="`" horiz-adv-x="384" 
d="M228 1429v0l88 -229l8 -21l-20 -9l-73 -35l-20 -10v1l-2 -1l-11 19l-125 211l-13 22l23 12l110 53l24 11v-1l2 1z" />
    <glyph glyph-name="a" unicode="a" horiz-adv-x="1460" 
d="M1350 134v0l50 -134h-3h-140h-3h-171h-2h-68h-2l-24 66l-35 93h-445l-34 -93l-24 -66h-2h-68h-2h-172h-2h-141h-2l49 134l448 1223l25 65h2h292h2l24 -65zM640 522v0h179l-89 244z" />
    <glyph glyph-name="b" unicode="b" horiz-adv-x="1096" 
d="M985 654v0q51 -99 51 -208q0 -123 -60 -224t-161.5 -161.5t-224.5 -60.5h-2h-426h-2h-98h-2v100v1222v100h2h98h2h385h2q123 0 224.5 -60t162 -161.5t60.5 -224.5q0 -92 -37 -176q-13 -32 -32 -61q34 -40 58 -85zM547 1059v0h-122v-166h122q35 0 59 24.5t24 58.5
q0 35 -24 59t-59 24zM425 363v0h163q34 0 58.5 24.5t24.5 58.5q0 35 -24.5 59.5t-58.5 24.5h-163v-167z" />
    <glyph glyph-name="c" unicode="c" horiz-adv-x="1201" 
d="M771 0v0q-142 0 -271.5 53.5t-231.5 154.5q-101 102 -154.5 231.5t-53.5 271.5q0 143 53.5 272t154.5 231q102 101 231.5 154.5t271.5 53.5h1h1v0h1v0h1v0h1q162 0 308 -70l57 -27v-63v-189v-119l-2 2l-1 1v-3q-116 135 -310 141q-112 -2 -202.5 -53t-144.5 -138
t-54 -192q0 -106 54 -193t144.5 -138t202.5 -52q194 6 310 140v-2q1 0 1 1q1 1 2 1v-119v-190v-63l-57 -27q-146 -70 -308 -70h-1v0h-1v0h-1v0h-1h-1z" />
    <glyph glyph-name="d" unicode="d" horiz-adv-x="1117" 
d="M160 0v0h-98h-2v100v1222v100h2h98h2h181h3q142 0 271.5 -53.5t231.5 -154.5q101 -102 154.5 -231t53.5 -272q0 -142 -53.5 -271.5t-154.5 -231.5q-102 -101 -231.5 -154.5t-271.5 -53.5h-3h-181h-2zM692 711v0q0 123 -75 216t-192 123v-677q117 30 192 122.5t75 215.5z
" />
    <glyph glyph-name="e" unicode="e" horiz-adv-x="1035" 
d="M160 0v0h-98h-2v100v1222v100h2h98h2h709h2h98h2v-100v-163v-100h-2h-98h-2h-446v-166h258h2h39h2h57h2h39h2v-100v-163v-100h-2h-39h-2h-57h-2h-39h-2h-258v-167h448h2h98h2v-100v-163v-100h-2h-98h-2h-711h-2z" />
    <glyph glyph-name="f" unicode="f" horiz-adv-x="1033" 
d="M160 0v0h-98h-2v100v1222v100h2h98h2h709h2h98h2v-100v-163v-100h-2h-98h-2h-446v-166h258h2h39h2h57h2h39h2v-100v-163v-100h-2h-39h-2h-57h-2h-39h-2h-258v-430v-100h-2h-98h-2h-161h-2z" />
    <glyph glyph-name="g" unicode="g" horiz-adv-x="1201" 
d="M771 0v0q-142 0 -271.5 53.5t-231.5 154.5q-101 102 -154.5 231.5t-53.5 271.5q0 143 53.5 272t154.5 231q102 101 231.5 154.5t271.5 53.5h1h1v0h1v0h1v0h1q162 0 308 -70l57 -27v-63v-189v-119l-2 2l-1 1v-3q-116 135 -310 141q-112 -2 -202.5 -53t-144.5 -138
t-54 -192q0 -100 49 -184t131.5 -136t186.5 -62v200h-53h-2h-88h-3v90v163v91h3h88h2h307h2h88h2v-91v-314h1v0v-119v-190v-63l-57 -27q-146 -70 -308 -70h-1v0h-1v0h-1v0h-1h-1z" />
    <glyph glyph-name="h" unicode="h" horiz-adv-x="1168" 
d="M323 0v0h-161h-2h-98h-2v100v1222v100h2h98h2h161h2h98h2v-100v-429h318v429v100h2h98h2h161h2h98h2v-100v-1222v-100h-2h-98h-2h-161h-2h-98h-2v100v430h-318v-430v-100h-2h-98h-2z" />
    <glyph glyph-name="i" unicode="i" horiz-adv-x="485" 
d="M160 0v0h-98h-2v100v1222v100h2h98h2h161h2h98h2v-100v-1222v-100h-2h-98h-2h-161h-2z" />
    <glyph glyph-name="j" unicode="j" horiz-adv-x="791" 
d="M160 0v0h-98h-2v100v163v100h2h98h2h120q35 0 59.5 24.5t24.5 58.5v43v57v43v733v100h2h98h2h161h2h98h2v-100v-733v-43v-57v-43q0 -123 -60.5 -224t-161.5 -161.5t-224 -60.5h-3h-120h-2z" />
    <glyph glyph-name="k" unicode="k" horiz-adv-x="1280" 
d="M160 0v0h-98h-2v100v1222v100h2h98h2h161h2h98h2v-100v-237l274 304l30 33h2h43h2h217h2h222h3l-150 -167l-421 -467l426 -632l105 -156h-2h-186h-2h-194h-3h-50h-3l-30 44l-285 423v-367v-100h-2h-98h-2h-161h-2z" />
    <glyph glyph-name="l" unicode="l" horiz-adv-x="1015" 
d="M160 0v0h-98h-2v100v1222v100h2h98h2h161h2h98h2v-100v-959h428h2h98h2v-100v-163v-100h-2h-98h-2h-691h-2z" />
    <glyph glyph-name="m" unicode="m" horiz-adv-x="1552" 
d="M160 0v0h-98h-2v100v1222v100h2h98h2h217h2h65h2l26 -62l302 -738l302 738l25 62h3h64h3h216h3h97h3v-100v-1222v-100h-3h-97h-3h-160h-3h-97h-3v100v402l-180 -440l-26 -62h-2h-65h-2h-150h-3h-64h-3l-25 62l-181 440v-402v-100h-2h-98h-2h-161h-2z" />
    <glyph glyph-name="n" unicode="n" horiz-adv-x="1178" 
d="M1018 0v0h-2h-211h-3h-59h-2l-28 55l-288 575v-530v-100h-2h-98h-2h-161h-2h-98h-2v100v1222v100h2h98h2h211h3h59h2l28 -55l288 -575v530v100h2h98h2h161h2h98h2v-100v-1222v-100h-2h-98z" />
    <glyph glyph-name="o" unicode="o" 
d="M1244 211v0q-95 -99 -220 -154q-130 -57 -271 -57v0h-1h-1v0q-141 0 -272 57q-124 55 -219 154q-97 101 -148.5 230t-51.5 270q0 142 51.5 270.5t148.5 229.5q95 100 219 154q131 57 272 57v0h1h1v0q141 0 271 -57q125 -54 220 -154q97 -101 148.5 -229.5t51.5 -270.5
q0 -141 -51.5 -270t-148.5 -230zM425 711v0q0 -144 94 -244t233 -104q139 4 233 104t94 244t-94 244t-233 104q-139 -4 -233 -104t-94 -244z" />
    <glyph glyph-name="p" unicode="p" horiz-adv-x="1056" 
d="M325 0v0h-2h-161h-2h-98h-2v100v1222v100h2h98h2h324h2q140 0 255.5 -68.5t184 -183.5t68.5 -255t-68.5 -255t-184 -184t-255.5 -69h-2h-61v-307v-100h-2h-98zM486 1059v0h-61v-289h61q60 0 102 42.5t42 102.5t-42 102t-102 42z" />
    <glyph glyph-name="q" unicode="q" 
d="M479 59v0q-124 55 -219 154q-97 102 -148.5 230.5t-51.5 270.5q0 141 51.5 269.5t148.5 230.5q95 99 219 154q131 57 272 57v0h1h1v0q141 0 271 -57q125 -55 220 -154q97 -102 148.5 -230.5t51.5 -269.5q0 -142 -51.5 -270.5t-148.5 -230.5l-8 -8l-1 -1l85 -131l48 -73
h-3h-85h-2h-194h-3h-23h-3l-14 22l-22 35q-128 -55 -266 -55v0h-1h-1v0q-141 0 -272 57zM950 604v0h24h2l14 -21l37 -57q52 84 52 188q0 143 -94 243.5t-233 104.5q-139 -4 -233 -104.5t-94 -243.5q0 -144 94 -244t233 -105q32 0 62 7l-103 159l-47 73h2h85h3h194h2z" />
    <glyph glyph-name="r" unicode="r" horiz-adv-x="1177" 
d="M1117 0v0h-2h-186h-2h-194h-3h-51h-2l-30 44l-222 330v-274v-100h-2h-98h-2h-161h-2h-98h-2v100v1222v100h2h98h2h324h2q140 0 255.5 -68.5t184 -183.5t68.5 -255q0 -129 -58.5 -237t-157.5 -178l232 -344zM486 1059v0h-61v-289h61q60 0 102 42.5t42 102.5t-42 102
t-102 42z" />
    <glyph glyph-name="s" unicode="s" horiz-adv-x="1194" 
d="M609 0v0v0v0q-113 -1 -224 41q-108 41 -214 124q-11 8 -23 18l-10 8l-78 62l62 78l101 128l63 78l1 -1l1 1l1 -1l1 1l79 -62l12 -10q9 -7 17 -13q114 -89 208 -89q9 0 17 1q42 4 77 24q20 10 34 27q11 13 11 30q-3 21 -21 32q-20 13 -43 20q-5 1 -9 3q-29 10 -59 19
q-2 0 -4 1q-34 10 -71 23l-3 1q-100 30 -207 92q-60 38 -103 87q-50 58 -76 130q-36 99 -14 205q19 92 78 169q70 91 182 143q109 50 232 52v0h1v0h1h1h1v0q135 0 243 -60t182 -170q3 -4 11.5 -17t19.5 -30l-250 -214l-1 1h-1l-1 -1q-5 6 -11.5 12t-10.5 10q-3 4 -4 5
q-14 13 -27 27q-30 38 -75 61q-35 16 -74 16q-22 0 -43 -5q-28 -6 -56.5 -22.5t-36.5 -45.5q-3 -17 7 -28.5t24 -18.5q55 -31 117 -50l150 -50q80 -26 150 -72q111 -79 152 -213q38 -132 -10 -258q-54 -134 -181 -215q-109 -68 -242 -81q-24 -3 -49 -3h-1v0h-1h-1h-1h-1z
M632 1322v0h-1v0v0v0h1z" />
    <glyph glyph-name="t" unicode="t" horiz-adv-x="1178" 
d="M160 1059v0h-98h-2v100v163v100h2h98h2h244h3h97h3h160h3h97h3h244h2h98h2v-100v-163v-100h-2h-98h-2h-244v-959v-100h-3h-97h-3h-160h-3h-97h-3v100v959h-244h-2z" />
    <glyph glyph-name="u" unicode="u" horiz-adv-x="1096" 
d="M548 0v0v0h-1q-134 0 -244.5 66t-176.5 176.5t-66 244.5v835v100h2h98h2h161h2h98h2v-100v-835q0 -51 35.5 -86.5t87.5 -37.5q52 2 87.5 37.5t35.5 86.5v835v100h3h97h3h160h3h97h2v-100v-835q0 -134 -65.5 -244.5t-176 -176.5t-245.5 -66v0h-1z" />
    <glyph glyph-name="v" unicode="v" horiz-adv-x="1460" 
d="M1400 1422v0l-50 -134l-448 -1222l-24 -66h-2h-68h-2h-152h-3h-67h-2l-25 66l-448 1222l-49 134h2h141h2h172h2h68h2l24 -65l257 -701l257 701l24 65h2h68h2h171h3h140h3z" />
    <glyph glyph-name="w" unicode="w" horiz-adv-x="1977" 
d="M557 66v0l-448 1222l-49 134h2h141h2h172h2h68h2l24 -65l242 -661l89 328l20 74h2h74h3h171h3h74h2l20 -74l89 -328l242 661l24 65h3h67h2h172h2h141h2l-49 -134l-448 -1222l-24 -66h-3h-67h-3h-152h-2h-74h-2l-21 74l-83 305l-84 -305l-20 -74h-3h-74h-2h-152h-3h-67h-2
z" />
    <glyph glyph-name="x" unicode="x" horiz-adv-x="1412" 
d="M927 0v0h-2l-29 48l-190 312l-190 -312l-29 -48h-2h-54h-2h-189h-2h-176h-2l92 152l340 559l-340 559l-92 152h2h176h2h189h2h54h2l29 -48l190 -312l190 312l29 48h2h54h3h188h2h176h2l-92 -152l-340 -559l340 -559l92 -152h-2h-176h-2h-188h-3h-54zM706 870v0v0v0v0v0z
" />
    <glyph glyph-name="y" unicode="y" horiz-adv-x="1359" 
d="M762 0v0h-2h-161h-2h-98h-2v100v466l-363 711l-74 145h2h161h3h180h3h58h3l28 -54l182 -357l182 357l28 54h2h59h2h181h2h161h2l-74 -145l-363 -711v-466v-100h-2h-98z" />
    <glyph glyph-name="z" unicode="z" horiz-adv-x="1270" 
d="M225 0v0h-163h-2l76 146l474 913h-351h-2h-98h-2v100v163v100h2h98h2h784h2h162h3l-76 -146l-474 -913h351h2h98h2v-100v-163v-100h-2h-98h-2h-784h-2z" />
    <glyph glyph-name="dieresis" unicode="&#xa8;" horiz-adv-x="587" 
d="M168 1391v0q43 0 74 -31t31 -75q0 -43 -31 -74t-74 -31h-1h-1v0h-1q-43 0 -74 31t-31 74q0 44 31 75t74 31h1v0h1h1zM422 1391v0q43 0 74 -31t31 -75q0 -43 -31 -74t-74 -31h-1h-1v0h-1q-43 0 -74 31t-31 74q0 44 31 75t74 31h1v0h1h1z" />
    <glyph glyph-name="acute" unicode="&#xb4;" horiz-adv-x="384" 
d="M167 1440v0l24 -11l110 -53l23 -12l-13 -22l-125 -211l-11 -19l-2 1v-1l-20 10l-73 35l-20 9l8 21l88 229l9 24l2 -1v1z" />
    <glyph glyph-name="Agrave" unicode="&#xc0;" horiz-adv-x="1460" 
d="M1350 134v0l50 -134h-3h-140h-3h-171h-2h-68h-2l-24 66l-35 93h-445l-34 -93l-24 -66h-2h-68h-2h-172h-2h-141h-2l49 134l448 1223l25 65h2h292h2l24 -65zM640 522v0h179l-89 244zM738 1899v0l88 -229l8 -21l-20 -9l-73 -35l-20 -10v1l-2 -1l-11 19l-125 211l-13 22
l23 12l110 53l24 11v-1l2 1z" />
    <glyph glyph-name="Aacute" unicode="&#xc1;" horiz-adv-x="1460" 
d="M1350 134v0l50 -134h-3h-140h-3h-171h-2h-68h-2l-24 66l-35 93h-445l-34 -93l-24 -66h-2h-68h-2h-172h-2h-141h-2l49 134l448 1223l25 65h2h292h2l24 -65zM640 522v0h179l-89 244zM714 1910v0l24 -11l110 -53l23 -12l-13 -22l-125 -211l-11 -19l-2 1v-1l-20 10l-73 35
l-20 9l8 21l88 229l9 24l2 -1v1z" />
    <glyph glyph-name="Acircumflex" unicode="&#xc2;" horiz-adv-x="1460" 
d="M1350 134v0l50 -134h-3h-140h-3h-171h-2h-68h-2l-24 66l-35 93h-445l-34 -93l-24 -66h-2h-68h-2h-172h-2h-141h-2l49 134l448 1223l25 65h2h292h2l24 -65zM640 522v0h179l-89 244zM898 1736v0l17 -17l-17 -17l-72 -72l-16 -17l-2 1l-1 -1l-17 17l-68 68l-68 -68l-17 -17
l-1 1l-1 -1l-17 17l-72 72l-17 17l17 17l158 158l17 17l1 -2l1 2l17 -17z" />
    <glyph glyph-name="Atilde" unicode="&#xc3;" horiz-adv-x="1460" 
d="M1350 134v0l50 -134h-3h-140h-3h-171h-2h-68h-2l-24 66l-35 93h-445l-34 -93l-24 -66h-2h-68h-2h-172h-2h-141h-2l49 134l448 1223l25 65h2h292h2l24 -65zM640 522v0h179l-89 244zM861 1837v0l83 -41l21 -10l-10 -22q-26 -50 -53.5 -77t-54.5 -36.5t-49 -9.5v0h-1v0h-1
q-17 0 -34 4q-51 18 -74 44l-9 9q-6 6 -12 11.5t-10 8.5q-5 -2 -12.5 -8.5t-14.5 -15.5l-14 -20l-1 1l-1 -1l-19 14l-76 54l-19 14l14 20q64 83 143 83v0h1v0h1q29 0 56 -12q41 -22 64 -48l1 -1l7 -7q6 -6 9 -8q11 7 31 44l10 21l2 -1l1 1z" />
    <glyph glyph-name="Adieresis" unicode="&#xc4;" horiz-adv-x="1460" 
d="M1350 134v0l50 -134h-3h-140h-3h-171h-2h-68h-2l-24 66l-35 93h-445l-34 -93l-24 -66h-2h-68h-2h-172h-2h-141h-2l49 134l448 1223l25 65h2h292h2l24 -65zM640 522v0h179l-89 244zM594 1861v0q43 0 74 -31t31 -75q0 -43 -31 -74t-74 -31h-1h-1v0h-1q-43 0 -74 31t-31 74
q0 44 31 75t74 31h1v0h1h1zM848 1861v0q43 0 74 -31t31 -75q0 -43 -31 -74t-74 -31h-1h-1v0h-1q-43 0 -74 31t-31 74q0 44 31 75t74 31h1v0h1h1z" />
    <glyph glyph-name="Aring" unicode="&#xc5;" horiz-adv-x="1460" 
d="M1350 134v0l50 -134h-3h-140h-3h-171h-2h-68h-2l-24 66l-35 93h-445l-34 -93l-24 -66h-2h-68h-2h-172h-2h-141h-2l49 134l448 1223l25 65h2h292h2l24 -65zM640 522v0h179l-89 244zM692 1940v0h1h1q76 0 130 -55t54 -133t-54 -133.5t-130 -55.5h-1h-1v0h-1
q-76 0 -130 55.5t-54 133.5t54 133t130 55h1v0zM649 1752v0q0 -20 12.5 -34.5t30.5 -15.5q19 1 31.5 15.5t12.5 34.5t-12.5 34t-31.5 15q-18 -1 -30.5 -15t-12.5 -34z" />
    <glyph glyph-name="AE" unicode="&#xc6;" horiz-adv-x="1888" 
d="M1728 1422v0h98h2v-100v-163v-100h-2h-98h-2h-472l12 -166h360h2h38h3h97h3v-100v-163v-100h-3h-97h-3h-38h-2h-332l13 -167h419h2h98h2v-100v-163v-100h-2h-98h-2h-465h-2h-60h-2h-109h-3h-70h-3l-22 69l-47 143h-406l-61 -150l-25 -62h-3h-64h-3h-171h-2h-146h-2
l55 137l491 1223l25 62h3h65h2h110h2h40h3h111h3h85h3h668h2zM687 575v0h139l-60 191z" />
    <glyph glyph-name="Ccedilla" unicode="&#xc7;" horiz-adv-x="1201" 
d="M776 1417v0q162 0 308 -70l57 -27v-63v-190v-118q-1 1 -2 1q0 1 -1 1v-2q-116 134 -310 141q-112 -2 -202.5 -53t-144.5 -138t-54 -193q0 -105 54 -192t144.5 -138t202.5 -53q194 7 310 141v-3q1 1 1 2q1 0 2 1v-120v-189v-63l-57 -27q-76 -37 -157 -54v-59v-100h-2h-98
h-2h-161h-2h-98h-2v100v74q-167 51 -294 177q-101 102 -154.5 231t-53.5 272q0 142 53.5 271.5t154.5 231.5q102 101 231.5 154.5t271.5 53.5h1h1v0h1v0h1v0h1z" />
    <glyph glyph-name="Egrave" unicode="&#xc8;" horiz-adv-x="1035" 
d="M160 0v0h-98h-2v100v1222v100h2h98h2h709h2h98h2v-100v-163v-100h-2h-98h-2h-446v-166h258h2h39h2h57h2h39h2v-100v-163v-100h-2h-39h-2h-57h-2h-39h-2h-258v-167h448h2h98h2v-100v-163v-100h-2h-98h-2h-711h-2zM489 1899v0l88 -229l8 -21l-20 -9l-73 -35l-20 -10v1
l-2 -1l-11 19l-125 211l-13 22l23 12l110 53l24 11v-1l2 1z" />
    <glyph glyph-name="Eacute" unicode="&#xc9;" horiz-adv-x="1035" 
d="M160 0v0h-98h-2v100v1222v100h2h98h2h709h2h98h2v-100v-163v-100h-2h-98h-2h-446v-166h258h2h39h2h57h2h39h2v-100v-163v-100h-2h-39h-2h-57h-2h-39h-2h-258v-167h448h2h98h2v-100v-163v-100h-2h-98h-2h-711h-2zM505 1910v0l24 -11l110 -53l23 -12l-13 -22l-125 -211
l-11 -19l-2 1v-1l-20 10l-73 35l-20 9l8 21l88 229l9 24l2 -1v1z" />
    <glyph glyph-name="Ecircumflex" unicode="&#xca;" horiz-adv-x="1035" 
d="M160 0v0h-98h-2v100v1222v100h2h98h2h709h2h98h2v-100v-163v-100h-2h-98h-2h-446v-166h258h2h39h2h57h2h39h2v-100v-163v-100h-2h-39h-2h-57h-2h-39h-2h-258v-167h448h2h98h2v-100v-163v-100h-2h-98h-2h-711h-2zM659 1736v0l17 -17l-17 -17l-72 -72l-16 -17l-2 1l-1 -1
l-17 17l-68 68l-68 -68l-17 -17l-1 1l-1 -1l-17 17l-72 72l-17 17l17 17l158 158l17 17l1 -2l1 2l17 -17z" />
    <glyph glyph-name="Edieresis" unicode="&#xcb;" horiz-adv-x="1035" 
d="M160 0v0h-98h-2v100v1222v100h2h98h2h709h2h98h2v-100v-163v-100h-2h-98h-2h-446v-166h258h2h39h2h57h2h39h2v-100v-163v-100h-2h-39h-2h-57h-2h-39h-2h-258v-167h448h2h98h2v-100v-163v-100h-2h-98h-2h-711h-2zM425 1861v0q43 0 74 -31t31 -75q0 -43 -31 -74t-74 -31h-1
h-1v0h-1q-43 0 -74 31t-31 74q0 44 31 75t74 31h1v0h1h1zM679 1861v0q43 0 74 -31t31 -75q0 -43 -31 -74t-74 -31h-1h-1v0h-1q-43 0 -74 31t-31 74q0 44 31 75t74 31h1v0h1h1z" />
    <glyph glyph-name="Igrave" unicode="&#xcc;" horiz-adv-x="485" 
d="M160 0v0h-98h-2v100v1222v100h2h98h2h161h2h98h2v-100v-1222v-100h-2h-98h-2h-161h-2zM249 1899v0l88 -229l8 -21l-20 -9l-73 -35l-20 -10v1l-2 -1l-11 19l-125 211l-13 22l23 12l110 53l24 11v-1l2 1z" />
    <glyph glyph-name="Iacute" unicode="&#xcd;" horiz-adv-x="485" 
d="M160 0v0h-98h-2v100v1222v100h2h98h2h161h2h98h2v-100v-1222v-100h-2h-98h-2h-161h-2zM225 1910v0l24 -11l110 -53l23 -12l-13 -22l-125 -211l-11 -19l-2 1v-1l-20 10l-73 35l-20 9l8 21l88 229l9 24l2 -1v1z" />
    <glyph glyph-name="Icircumflex" unicode="&#xce;" horiz-adv-x="506" 
d="M170 0v0h-98h-2v100v1222v100h2h98h2h161h2h98h2v-100v-1222v-100h-2h-98h-2h-161h-2zM429 1736v0l17 -17l-17 -17l-72 -72l-16 -17l-2 1l-1 -1l-17 17l-68 68l-68 -68l-17 -17l-1 1l-1 -1l-17 17l-72 72l-17 17l17 17l158 158l17 17l1 -2l1 2l17 -17z" />
    <glyph glyph-name="Idieresis" unicode="&#xcf;" horiz-adv-x="587" 
d="M203 0v0h-98h-2v100v1222v100h2h98h2h161h2h98h2v-100v-1222v-100h-2h-98h-2h-161h-2zM168 1861v0q43 0 74 -31t31 -75q0 -43 -31 -74t-74 -31h-1h-1v0h-1q-43 0 -74 31t-31 74q0 44 31 75t74 31h1v0h1h1zM422 1861v0q43 0 74 -31t31 -75q0 -43 -31 -74t-74 -31h-1h-1v0
h-1q-43 0 -74 31t-31 74q0 44 31 75t74 31h1v0h1h1z" />
    <glyph glyph-name="Eth" unicode="&#xd0;" horiz-adv-x="1204" 
d="M935 1218v0q101 -102 155 -231t54 -272v-1v-1v-1v-1q0 -142 -54 -271.5t-155 -231.5q-102 -101 -231 -154.5t-272 -53.5h-2h-181h-2h-98h-2v100v503h-61h-2h-22h-2v24v163v24v4h2h22h2h61v504v100v4h2h98h2h181h2q143 0 272 -53.5t231 -154.5zM512 377v0
q116 30 189.5 121t76.5 215q-3 125 -76.5 216t-189.5 121v-232h142h2h22h2v-24v-163v-24v-4h-2h-22h-2h-142v-226z" />
    <glyph glyph-name="Ntilde" unicode="&#xd1;" horiz-adv-x="1178" 
d="M1018 0v0h-2h-211h-3h-59h-2l-28 55l-288 575v-530v-100h-2h-98h-2h-161h-2h-98h-2v100v1222v100h2h98h2h211h3h59h2l28 -55l288 -575v530v100h2h98h2h161h2h98h2v-100v-1222v-100h-2h-98zM717 1837v0l83 -41l21 -10l-10 -22q-26 -50 -53.5 -77t-54.5 -36.5t-49 -9.5v0
h-1v0h-1q-17 0 -34 4q-51 18 -74 44l-9 9q-6 6 -12 11.5t-10 8.5q-5 -2 -12.5 -8.5t-14.5 -15.5l-14 -20l-1 1l-1 -1l-19 14l-76 54l-19 14l14 20q64 83 143 83v0h1v0h1q29 0 56 -12q41 -22 64 -48l1 -1l7 -7q6 -6 9 -8q11 7 31 44l10 21l2 -1l1 1z" />
    <glyph glyph-name="Ograve" unicode="&#xd2;" 
d="M1244 211v0q-95 -99 -220 -154q-130 -57 -271 -57v0h-1h-1v0q-141 0 -272 57q-124 55 -219 154q-97 101 -148.5 230t-51.5 270q0 142 51.5 270.5t148.5 229.5q95 100 219 154q131 57 272 57v0h1h1v0q141 0 271 -57q125 -54 220 -154q97 -101 148.5 -229.5t51.5 -270.5
q0 -141 -51.5 -270t-148.5 -230zM425 711v0q0 -144 94 -244t233 -104q139 4 233 104t94 244t-94 244t-233 104q-139 -4 -233 -104t-94 -244zM764 1899v0l88 -229l8 -21l-20 -9l-73 -35l-20 -10v1l-2 -1l-11 19l-125 211l-13 22l23 12l110 53l24 11v-1l2 1z" />
    <glyph glyph-name="Oacute" unicode="&#xd3;" 
d="M1244 211v0q-95 -99 -220 -154q-130 -57 -271 -57v0h-1h-1v0q-141 0 -272 57q-124 55 -219 154q-97 101 -148.5 230t-51.5 270q0 142 51.5 270.5t148.5 229.5q95 100 219 154q131 57 272 57v0h1h1v0q141 0 271 -57q125 -54 220 -154q97 -101 148.5 -229.5t51.5 -270.5
q0 -141 -51.5 -270t-148.5 -230zM425 711v0q0 -144 94 -244t233 -104q139 4 233 104t94 244t-94 244t-233 104q-139 -4 -233 -104t-94 -244zM780 1910v0l24 -11l110 -53l23 -12l-13 -22l-125 -211l-11 -19l-2 1v-1l-20 10l-73 35l-20 9l8 21l88 229l9 24l2 -1v1z" />
    <glyph glyph-name="Ocircumflex" unicode="&#xd4;" 
d="M1244 211v0q-95 -99 -220 -154q-130 -57 -271 -57v0h-1h-1v0q-141 0 -272 57q-124 55 -219 154q-97 101 -148.5 230t-51.5 270q0 142 51.5 270.5t148.5 229.5q95 100 219 154q131 57 272 57v0h1h1v0q141 0 271 -57q125 -54 220 -154q97 -101 148.5 -229.5t51.5 -270.5
q0 -141 -51.5 -270t-148.5 -230zM425 711v0q0 -144 94 -244t233 -104q139 4 233 104t94 244t-94 244t-233 104q-139 -4 -233 -104t-94 -244zM934 1736v0l17 -17l-17 -17l-72 -72l-16 -17l-2 1l-1 -1l-17 17l-68 68l-68 -68l-17 -17l-1 1l-1 -1l-17 17l-72 72l-17 17l17 17
l158 158l17 17l1 -2l1 2l17 -17z" />
    <glyph glyph-name="Otilde" unicode="&#xd5;" 
d="M1244 211v0q-95 -99 -220 -154q-130 -57 -271 -57v0h-1h-1v0q-141 0 -272 57q-124 55 -219 154q-97 101 -148.5 230t-51.5 270q0 142 51.5 270.5t148.5 229.5q95 100 219 154q131 57 272 57v0h1h1v0q141 0 271 -57q125 -54 220 -154q97 -101 148.5 -229.5t51.5 -270.5
q0 -141 -51.5 -270t-148.5 -230zM425 711v0q0 -144 94 -244t233 -104q139 4 233 104t94 244t-94 244t-233 104q-139 -4 -233 -104t-94 -244zM907 1837v0l83 -41l21 -10l-10 -22q-26 -50 -53.5 -77t-54.5 -36.5t-49 -9.5v0h-1v0h-1q-17 0 -34 4q-51 18 -74 44l-9 9
q-6 6 -12 11.5t-10 8.5q-5 -2 -12.5 -8.5t-14.5 -15.5l-14 -20l-1 1l-1 -1l-19 14l-76 54l-19 14l14 20q64 83 143 83v0h1v0h1q29 0 56 -12q41 -22 64 -48l1 -1l7 -7q6 -6 9 -8q11 7 31 44l10 21l2 -1l1 1z" />
    <glyph glyph-name="Odieresis" unicode="&#xd6;" 
d="M1244 211v0q-95 -99 -220 -154q-130 -57 -271 -57v0h-1h-1v0q-141 0 -272 57q-124 55 -219 154q-97 101 -148.5 230t-51.5 270q0 142 51.5 270.5t148.5 229.5q95 100 219 154q131 57 272 57v0h1h1v0q141 0 271 -57q125 -54 220 -154q97 -101 148.5 -229.5t51.5 -270.5
q0 -141 -51.5 -270t-148.5 -230zM425 711v0q0 -144 94 -244t233 -104q139 4 233 104t94 244t-94 244t-233 104q-139 -4 -233 -104t-94 -244zM620 1861v0q43 0 74 -31t31 -75q0 -43 -31 -74t-74 -31h-1h-1v0h-1q-43 0 -74 31t-31 74q0 44 31 75t74 31h1v0h1h1zM874 1861v0
q43 0 74 -31t31 -75q0 -43 -31 -74t-74 -31h-1h-1v0h-1q-43 0 -74 31t-31 74q0 44 31 75t74 31h1v0h1h1z" />
    <glyph glyph-name="Oslash" unicode="&#xd8;" 
d="M1205 1249v0q20 -18 39 -38q97 -101 148.5 -229.5t51.5 -270.5q0 -141 -51.5 -270t-148.5 -230q-95 -99 -220 -154q-130 -57 -271 -57h-1v0h-1v0q-110 0 -214 35l-6 -10l-13 -25h-3h-25h-3h-195h-2h-78h-3l39 71l55 99q-23 19 -43 41q-97 101 -148.5 230t-51.5 270
q0 142 51.5 270.5t148.5 229.5q95 100 219 154q131 57 272 57v0h1h1v0q113 0 218 -36l2 2l13 25h2h26h3h195h2h78h3l-39 -71zM752 1059v0q-139 -4 -233 -104t-94 -244q0 -114 63 -204l302 550q-19 2 -38 2zM718 365v0q17 -2 34 -2q139 4 233 104t94 244q0 112 -60 200z" />
    <glyph glyph-name="Ugrave" unicode="&#xd9;" horiz-adv-x="1096" 
d="M548 0v0v0h-1q-134 0 -244.5 66t-176.5 176.5t-66 244.5v835v100h2h98h2h161h2h98h2v-100v-835q0 -51 35.5 -86.5t87.5 -37.5q52 2 87.5 37.5t35.5 86.5v835v100h3h97h3h160h3h97h2v-100v-835q0 -134 -65.5 -244.5t-176 -176.5t-245.5 -66v0h-1zM566 1899v0l88 -229
l8 -21l-20 -9l-73 -35l-20 -10v1l-2 -1l-11 19l-125 211l-13 22l23 12l110 53l24 11v-1l2 1z" />
    <glyph glyph-name="Uacute" unicode="&#xda;" horiz-adv-x="1096" 
d="M548 0v0v0h-1q-134 0 -244.5 66t-176.5 176.5t-66 244.5v835v100h2h98h2h161h2h98h2v-100v-835q0 -51 35.5 -86.5t87.5 -37.5q52 2 87.5 37.5t35.5 86.5v835v100h3h97h3h160h3h97h2v-100v-835q0 -134 -65.5 -244.5t-176 -176.5t-245.5 -66v0h-1zM532 1910v0l24 -11
l110 -53l23 -12l-13 -22l-125 -211l-11 -19l-2 1v-1l-20 10l-73 35l-20 9l8 21l88 229l9 24l2 -1v1z" />
    <glyph glyph-name="Ucircumflex" unicode="&#xdb;" horiz-adv-x="1096" 
d="M548 0v0v0h-1q-134 0 -244.5 66t-176.5 176.5t-66 244.5v835v100h2h98h2h161h2h98h2v-100v-835q0 -51 35.5 -86.5t87.5 -37.5q52 2 87.5 37.5t35.5 86.5v835v100h3h97h3h160h3h97h2v-100v-835q0 -134 -65.5 -244.5t-176 -176.5t-245.5 -66v0h-1zM726 1736v0l17 -17
l-17 -17l-72 -72l-16 -17l-2 1l-1 -1l-17 17l-68 68l-68 -68l-17 -17l-1 1l-1 -1l-17 17l-72 72l-17 17l17 17l158 158l17 17l1 -2l1 2l17 -17z" />
    <glyph glyph-name="Udieresis" unicode="&#xdc;" horiz-adv-x="1096" 
d="M548 0v0v0h-1q-134 0 -244.5 66t-176.5 176.5t-66 244.5v835v100h2h98h2h161h2h98h2v-100v-835q0 -51 35.5 -86.5t87.5 -37.5q52 2 87.5 37.5t35.5 86.5v835v100h3h97h3h160h3h97h2v-100v-835q0 -134 -65.5 -244.5t-176 -176.5t-245.5 -66v0h-1zM422 1861v0q43 0 74 -31
t31 -75q0 -43 -31 -74t-74 -31h-1h-1v0h-1q-43 0 -74 31t-31 74q0 44 31 75t74 31h1v0h1h1zM676 1861v0q43 0 74 -31t31 -75q0 -43 -31 -74t-74 -31h-1h-1v0h-1q-43 0 -74 31t-31 74q0 44 31 75t74 31h1v0h1h1z" />
    <glyph glyph-name="Yacute" unicode="&#xdd;" horiz-adv-x="1359" 
d="M762 0v0h-2h-161h-2h-98h-2v100v466l-363 711l-74 145h2h161h3h180h3h58h3l28 -54l182 -357l182 357l28 54h2h59h2h181h2h161h2l-74 -145l-363 -711v-466v-100h-2h-98zM652 1910v0l24 -11l110 -53l23 -12l-13 -22l-125 -211l-11 -19l-2 1v-1l-20 10l-73 35l-20 9l8 21
l88 229l9 24l2 -1v1z" />
    <glyph glyph-name="Thorn" unicode="&#xde;" horiz-adv-x="1056" 
d="M476 1235v0q143 0 261 -70.5t188.5 -188.5t70.5 -261v-1v-1v-1v-1q0 -143 -70.5 -261t-188.5 -188.5t-261 -70.5h-2h-49v-91v-100h-2h-98h-2h-161h-2h-98h-2v4v100v91v100v163v100v314v100v163v100v91v100h2h98h2h161h2h98h2v-4v-100v-87h49h2zM474 558v0q64 0 109 44.5
t47 110.5q-2 66 -47 110.5t-109 44.5h-49v-310h49z" />
    <glyph glyph-name="germandbls" unicode="&#xdf;" horiz-adv-x="1096" 
d="M996 976v0q0 -131 -69 -237q52 -60 80.5 -134.5t28.5 -158.5q0 -123 -60 -224t-161.5 -161.5t-224.5 -60.5h-2h-42h-2h-45h-3v100v163v100h3h45h2h42q34 0 58.5 24.5t24.5 58.5q0 35 -24.5 59.5t-58.5 24.5h-39h-2h-1h-2v0h-2h-43h-2h-1h-2v100v163v100h2h1h2h43h2v0h2h1
q35 0 59 24.5t24 58.5t-23.5 58t-58.5 25q-52 -1 -87.5 -37t-35.5 -87v-1059v-100h-2h-98h-2h-161h-2h-98h-2v100v1059q0 135 66 245.5t176.5 176t244.5 65.5h1v0h1v0q123 0 224.5 -60t162 -161.5t60.5 -224.5z" />
    <glyph glyph-name="agrave" unicode="&#xe0;" horiz-adv-x="1460" 
d="M1350 134v0l50 -134h-3h-140h-3h-171h-2h-68h-2l-24 66l-35 93h-445l-34 -93l-24 -66h-2h-68h-2h-172h-2h-141h-2l49 134l448 1223l25 65h2h292h2l24 -65zM640 522v0h179l-89 244zM738 1899v0l88 -229l8 -21l-20 -9l-73 -35l-20 -10v1l-2 -1l-11 19l-125 211l-13 22
l23 12l110 53l24 11v-1l2 1z" />
    <glyph glyph-name="aacute" unicode="&#xe1;" horiz-adv-x="1460" 
d="M1350 134v0l50 -134h-3h-140h-3h-171h-2h-68h-2l-24 66l-35 93h-445l-34 -93l-24 -66h-2h-68h-2h-172h-2h-141h-2l49 134l448 1223l25 65h2h292h2l24 -65zM640 522v0h179l-89 244zM714 1910v0l24 -11l110 -53l23 -12l-13 -22l-125 -211l-11 -19l-2 1v-1l-20 10l-73 35
l-20 9l8 21l88 229l9 24l2 -1v1z" />
    <glyph glyph-name="acircumflex" unicode="&#xe2;" horiz-adv-x="1460" 
d="M1350 134v0l50 -134h-3h-140h-3h-171h-2h-68h-2l-24 66l-35 93h-445l-34 -93l-24 -66h-2h-68h-2h-172h-2h-141h-2l49 134l448 1223l25 65h2h292h2l24 -65zM640 522v0h179l-89 244zM898 1736v0l17 -17l-17 -17l-72 -72l-16 -17l-2 1l-1 -1l-17 17l-68 68l-68 -68l-17 -17
l-1 1l-1 -1l-17 17l-72 72l-17 17l17 17l158 158l17 17l1 -2l1 2l17 -17z" />
    <glyph glyph-name="atilde" unicode="&#xe3;" horiz-adv-x="1460" 
d="M1350 134v0l50 -134h-3h-140h-3h-171h-2h-68h-2l-24 66l-35 93h-445l-34 -93l-24 -66h-2h-68h-2h-172h-2h-141h-2l49 134l448 1223l25 65h2h292h2l24 -65zM640 522v0h179l-89 244zM861 1837v0l83 -41l21 -10l-10 -22q-26 -50 -53.5 -77t-54.5 -36.5t-49 -9.5v0h-1v0h-1
q-17 0 -34 4q-51 18 -74 44l-9 9q-6 6 -12 11.5t-10 8.5q-5 -2 -12.5 -8.5t-14.5 -15.5l-14 -20l-1 1l-1 -1l-19 14l-76 54l-19 14l14 20q64 83 143 83v0h1v0h1q29 0 56 -12q41 -22 64 -48l1 -1l7 -7q6 -6 9 -8q11 7 31 44l10 21l2 -1l1 1z" />
    <glyph glyph-name="adieresis" unicode="&#xe4;" horiz-adv-x="1460" 
d="M1350 134v0l50 -134h-3h-140h-3h-171h-2h-68h-2l-24 66l-35 93h-445l-34 -93l-24 -66h-2h-68h-2h-172h-2h-141h-2l49 134l448 1223l25 65h2h292h2l24 -65zM640 522v0h179l-89 244zM594 1861v0q43 0 74 -31t31 -75q0 -43 -31 -74t-74 -31h-1h-1v0h-1q-43 0 -74 31t-31 74
q0 44 31 75t74 31h1v0h1h1zM848 1861v0q43 0 74 -31t31 -75q0 -43 -31 -74t-74 -31h-1h-1v0h-1q-43 0 -74 31t-31 74q0 44 31 75t74 31h1v0h1h1z" />
    <glyph glyph-name="aring" unicode="&#xe5;" horiz-adv-x="1460" 
d="M1350 134v0l50 -134h-3h-140h-3h-171h-2h-68h-2l-24 66l-35 93h-445l-34 -93l-24 -66h-2h-68h-2h-172h-2h-141h-2l49 134l448 1223l25 65h2h292h2l24 -65zM640 522v0h179l-89 244zM692 1940v0h1h1q76 0 130 -55t54 -133t-54 -133.5t-130 -55.5h-1h-1v0h-1
q-76 0 -130 55.5t-54 133.5t54 133t130 55h1v0zM649 1752v0q0 -20 12.5 -34.5t30.5 -15.5q19 1 31.5 15.5t12.5 34.5t-12.5 34t-31.5 15q-18 -1 -30.5 -15t-12.5 -34z" />
    <glyph glyph-name="ae" unicode="&#xe6;" horiz-adv-x="1888" 
d="M1728 1422v0h98h2v-100v-163v-100h-2h-98h-2h-472l12 -166h360h2h38h3h97h3v-100v-163v-100h-3h-97h-3h-38h-2h-332l13 -167h419h2h98h2v-100v-163v-100h-2h-98h-2h-465h-2h-60h-2h-109h-3h-70h-3l-22 69l-47 143h-406l-61 -150l-25 -62h-3h-64h-3h-171h-2h-146h-2
l55 137l491 1223l25 62h3h65h2h110h2h40h3h111h3h85h3h668h2zM687 575v0h139l-60 191z" />
    <glyph glyph-name="ccedilla" unicode="&#xe7;" horiz-adv-x="1201" 
d="M776 1417v0q162 0 308 -70l57 -27v-63v-190v-118q-1 1 -2 1q0 1 -1 1v-2q-116 134 -310 141q-112 -2 -202.5 -53t-144.5 -138t-54 -193q0 -105 54 -192t144.5 -138t202.5 -53q194 7 310 141v-3q1 1 1 2q1 0 2 1v-120v-189v-63l-57 -27q-76 -37 -157 -54v-59v-100h-2h-98
h-2h-161h-2h-98h-2v100v74q-167 51 -294 177q-101 102 -154.5 231t-53.5 272q0 142 53.5 271.5t154.5 231.5q102 101 231.5 154.5t271.5 53.5h1h1v0h1v0h1v0h1z" />
    <glyph glyph-name="egrave" unicode="&#xe8;" horiz-adv-x="1035" 
d="M160 0v0h-98h-2v100v1222v100h2h98h2h709h2h98h2v-100v-163v-100h-2h-98h-2h-446v-166h258h2h39h2h57h2h39h2v-100v-163v-100h-2h-39h-2h-57h-2h-39h-2h-258v-167h448h2h98h2v-100v-163v-100h-2h-98h-2h-711h-2zM489 1899v0l88 -229l8 -21l-20 -9l-73 -35l-20 -10v1
l-2 -1l-11 19l-125 211l-13 22l23 12l110 53l24 11v-1l2 1z" />
    <glyph glyph-name="eacute" unicode="&#xe9;" horiz-adv-x="1035" 
d="M160 0v0h-98h-2v100v1222v100h2h98h2h709h2h98h2v-100v-163v-100h-2h-98h-2h-446v-166h258h2h39h2h57h2h39h2v-100v-163v-100h-2h-39h-2h-57h-2h-39h-2h-258v-167h448h2h98h2v-100v-163v-100h-2h-98h-2h-711h-2zM505 1910v0l24 -11l110 -53l23 -12l-13 -22l-125 -211
l-11 -19l-2 1v-1l-20 10l-73 35l-20 9l8 21l88 229l9 24l2 -1v1z" />
    <glyph glyph-name="ecircumflex" unicode="&#xea;" horiz-adv-x="1035" 
d="M160 0v0h-98h-2v100v1222v100h2h98h2h709h2h98h2v-100v-163v-100h-2h-98h-2h-446v-166h258h2h39h2h57h2h39h2v-100v-163v-100h-2h-39h-2h-57h-2h-39h-2h-258v-167h448h2h98h2v-100v-163v-100h-2h-98h-2h-711h-2zM659 1736v0l17 -17l-17 -17l-72 -72l-16 -17l-2 1l-1 -1
l-17 17l-68 68l-68 -68l-17 -17l-1 1l-1 -1l-17 17l-72 72l-17 17l17 17l158 158l17 17l1 -2l1 2l17 -17z" />
    <glyph glyph-name="edieresis" unicode="&#xeb;" horiz-adv-x="1035" 
d="M160 0v0h-98h-2v100v1222v100h2h98h2h709h2h98h2v-100v-163v-100h-2h-98h-2h-446v-166h258h2h39h2h57h2h39h2v-100v-163v-100h-2h-39h-2h-57h-2h-39h-2h-258v-167h448h2h98h2v-100v-163v-100h-2h-98h-2h-711h-2zM425 1861v0q43 0 74 -31t31 -75q0 -43 -31 -74t-74 -31h-1
h-1v0h-1q-43 0 -74 31t-31 74q0 44 31 75t74 31h1v0h1h1zM679 1861v0q43 0 74 -31t31 -75q0 -43 -31 -74t-74 -31h-1h-1v0h-1q-43 0 -74 31t-31 74q0 44 31 75t74 31h1v0h1h1z" />
    <glyph glyph-name="igrave" unicode="&#xec;" horiz-adv-x="485" 
d="M160 0v0h-98h-2v100v1222v100h2h98h2h161h2h98h2v-100v-1222v-100h-2h-98h-2h-161h-2zM249 1899v0l88 -229l8 -21l-20 -9l-73 -35l-20 -10v1l-2 -1l-11 19l-125 211l-13 22l23 12l110 53l24 11v-1l2 1z" />
    <glyph glyph-name="iacute" unicode="&#xed;" horiz-adv-x="485" 
d="M160 0v0h-98h-2v100v1222v100h2h98h2h161h2h98h2v-100v-1222v-100h-2h-98h-2h-161h-2zM225 1910v0l24 -11l110 -53l23 -12l-13 -22l-125 -211l-11 -19l-2 1v-1l-20 10l-73 35l-20 9l8 21l88 229l9 24l2 -1v1z" />
    <glyph glyph-name="icircumflex" unicode="&#xee;" horiz-adv-x="485" 
d="M160 0v0h-98h-2v100v1222v100h2h98h2h161h2h98h2v-100v-1222v-100h-2h-98h-2h-161h-2zM419 1736v0l17 -17l-17 -17l-72 -72l-16 -17l-2 1l-1 -1l-17 17l-68 68l-68 -68l-17 -17l-1 1l-1 -1l-17 17l-72 72l-17 17l17 17l158 158l17 17l1 -2l1 2l17 -17z" />
    <glyph glyph-name="idieresis" unicode="&#xef;" horiz-adv-x="485" 
d="M160 0v0h-98h-2v100v1222v100h2h98h2h161h2h98h2v-100v-1222v-100h-2h-98h-2h-161h-2zM125 1861v0q43 0 74 -31t31 -75q0 -43 -31 -74t-74 -31h-1h-1v0h-1q-43 0 -74 31t-31 74q0 44 31 75t74 31h1v0h1h1zM379 1861v0q43 0 74 -31t31 -75q0 -43 -31 -74t-74 -31h-1h-1v0
h-1q-43 0 -74 31t-31 74q0 44 31 75t74 31h1v0h1h1z" />
    <glyph glyph-name="eth" unicode="&#xf0;" horiz-adv-x="1204" 
d="M935 1218v0q101 -102 155 -231t54 -272v-1v-1v-1v-1q0 -142 -54 -271.5t-155 -231.5q-102 -101 -231 -154.5t-272 -53.5h-2h-181h-2h-98h-2v100v503h-61h-2h-22h-2v24v163v24v4h2h22h2h61v504v100v4h2h98h2h181h2q143 0 272 -53.5t231 -154.5zM512 377v0
q116 30 189.5 121t76.5 215q-3 125 -76.5 216t-189.5 121v-232h142h2h22h2v-24v-163v-24v-4h-2h-22h-2h-142v-226z" />
    <glyph glyph-name="ntilde" unicode="&#xf1;" horiz-adv-x="1178" 
d="M1018 0v0h-2h-211h-3h-59h-2l-28 55l-288 575v-530v-100h-2h-98h-2h-161h-2h-98h-2v100v1222v100h2h98h2h211h3h59h2l28 -55l288 -575v530v100h2h98h2h161h2h98h2v-100v-1222v-100h-2h-98zM717 1837v0l83 -41l21 -10l-10 -22q-26 -50 -53.5 -77t-54.5 -36.5t-49 -9.5v0
h-1v0h-1q-17 0 -34 4q-51 18 -74 44l-9 9q-6 6 -12 11.5t-10 8.5q-5 -2 -12.5 -8.5t-14.5 -15.5l-14 -20l-1 1l-1 -1l-19 14l-76 54l-19 14l14 20q64 83 143 83v0h1v0h1q29 0 56 -12q41 -22 64 -48l1 -1l7 -7q6 -6 9 -8q11 7 31 44l10 21l2 -1l1 1z" />
    <glyph glyph-name="ograve" unicode="&#xf2;" 
d="M1244 211v0q-95 -99 -220 -154q-130 -57 -271 -57v0h-1h-1v0q-141 0 -272 57q-124 55 -219 154q-97 101 -148.5 230t-51.5 270q0 142 51.5 270.5t148.5 229.5q95 100 219 154q131 57 272 57v0h1h1v0q141 0 271 -57q125 -54 220 -154q97 -101 148.5 -229.5t51.5 -270.5
q0 -141 -51.5 -270t-148.5 -230zM425 711v0q0 -144 94 -244t233 -104q139 4 233 104t94 244t-94 244t-233 104q-139 -4 -233 -104t-94 -244zM764 1899v0l88 -229l8 -21l-20 -9l-73 -35l-20 -10v1l-2 -1l-11 19l-125 211l-13 22l23 12l110 53l24 11v-1l2 1z" />
    <glyph glyph-name="oacute" unicode="&#xf3;" 
d="M1244 211v0q-95 -99 -220 -154q-130 -57 -271 -57v0h-1h-1v0q-141 0 -272 57q-124 55 -219 154q-97 101 -148.5 230t-51.5 270q0 142 51.5 270.5t148.5 229.5q95 100 219 154q131 57 272 57v0h1h1v0q141 0 271 -57q125 -54 220 -154q97 -101 148.5 -229.5t51.5 -270.5
q0 -141 -51.5 -270t-148.5 -230zM425 711v0q0 -144 94 -244t233 -104q139 4 233 104t94 244t-94 244t-233 104q-139 -4 -233 -104t-94 -244zM780 1910v0l24 -11l110 -53l23 -12l-13 -22l-125 -211l-11 -19l-2 1v-1l-20 10l-73 35l-20 9l8 21l88 229l9 24l2 -1v1z" />
    <glyph glyph-name="ocircumflex" unicode="&#xf4;" 
d="M1244 211v0q-95 -99 -220 -154q-130 -57 -271 -57v0h-1h-1v0q-141 0 -272 57q-124 55 -219 154q-97 101 -148.5 230t-51.5 270q0 142 51.5 270.5t148.5 229.5q95 100 219 154q131 57 272 57v0h1h1v0q141 0 271 -57q125 -54 220 -154q97 -101 148.5 -229.5t51.5 -270.5
q0 -141 -51.5 -270t-148.5 -230zM425 711v0q0 -144 94 -244t233 -104q139 4 233 104t94 244t-94 244t-233 104q-139 -4 -233 -104t-94 -244zM934 1736v0l17 -17l-17 -17l-72 -72l-16 -17l-2 1l-1 -1l-17 17l-68 68l-68 -68l-17 -17l-1 1l-1 -1l-17 17l-72 72l-17 17l17 17
l158 158l17 17l1 -2l1 2l17 -17z" />
    <glyph glyph-name="otilde" unicode="&#xf5;" 
d="M1244 211v0q-95 -99 -220 -154q-130 -57 -271 -57v0h-1h-1v0q-141 0 -272 57q-124 55 -219 154q-97 101 -148.5 230t-51.5 270q0 142 51.5 270.5t148.5 229.5q95 100 219 154q131 57 272 57v0h1h1v0q141 0 271 -57q125 -54 220 -154q97 -101 148.5 -229.5t51.5 -270.5
q0 -141 -51.5 -270t-148.5 -230zM425 711v0q0 -144 94 -244t233 -104q139 4 233 104t94 244t-94 244t-233 104q-139 -4 -233 -104t-94 -244zM907 1837v0l83 -41l21 -10l-10 -22q-26 -50 -53.5 -77t-54.5 -36.5t-49 -9.5v0h-1v0h-1q-17 0 -34 4q-51 18 -74 44l-9 9
q-6 6 -12 11.5t-10 8.5q-5 -2 -12.5 -8.5t-14.5 -15.5l-14 -20l-1 1l-1 -1l-19 14l-76 54l-19 14l14 20q64 83 143 83v0h1v0h1q29 0 56 -12q41 -22 64 -48l1 -1l7 -7q6 -6 9 -8q11 7 31 44l10 21l2 -1l1 1z" />
    <glyph glyph-name="odieresis" unicode="&#xf6;" 
d="M1244 211v0q-95 -99 -220 -154q-130 -57 -271 -57v0h-1h-1v0q-141 0 -272 57q-124 55 -219 154q-97 101 -148.5 230t-51.5 270q0 142 51.5 270.5t148.5 229.5q95 100 219 154q131 57 272 57v0h1h1v0q141 0 271 -57q125 -54 220 -154q97 -101 148.5 -229.5t51.5 -270.5
q0 -141 -51.5 -270t-148.5 -230zM425 711v0q0 -144 94 -244t233 -104q139 4 233 104t94 244t-94 244t-233 104q-139 -4 -233 -104t-94 -244zM620 1861v0q43 0 74 -31t31 -75q0 -43 -31 -74t-74 -31h-1h-1v0h-1q-43 0 -74 31t-31 74q0 44 31 75t74 31h1v0h1h1zM874 1861v0
q43 0 74 -31t31 -75q0 -43 -31 -74t-74 -31h-1h-1v0h-1q-43 0 -74 31t-31 74q0 44 31 75t74 31h1v0h1h1z" />
    <glyph glyph-name="oslash" unicode="&#xf8;" 
d="M1205 1249v0q20 -18 39 -38q97 -101 148.5 -229.5t51.5 -270.5q0 -141 -51.5 -270t-148.5 -230q-95 -99 -220 -154q-130 -57 -271 -57h-1v0h-1v0q-110 0 -214 35l-6 -10l-13 -25h-3h-25h-3h-195h-2h-78h-3l39 71l55 99q-23 19 -43 41q-97 101 -148.5 230t-51.5 270
q0 142 51.5 270.5t148.5 229.5q95 100 219 154q131 57 272 57v0h1h1v0q113 0 218 -36l2 2l13 25h2h26h3h195h2h78h3l-39 -71zM752 1059v0q-139 -4 -233 -104t-94 -244q0 -114 63 -204l302 550q-19 2 -38 2zM718 365v0q17 -2 34 -2q139 4 233 104t94 244q0 112 -60 200z" />
    <glyph glyph-name="ugrave" unicode="&#xf9;" horiz-adv-x="1096" 
d="M548 0v0v0h-1q-134 0 -244.5 66t-176.5 176.5t-66 244.5v835v100h2h98h2h161h2h98h2v-100v-835q0 -51 35.5 -86.5t87.5 -37.5q52 2 87.5 37.5t35.5 86.5v835v100h3h97h3h160h3h97h2v-100v-835q0 -134 -65.5 -244.5t-176 -176.5t-245.5 -66v0h-1zM566 1899v0l88 -229
l8 -21l-20 -9l-73 -35l-20 -10v1l-2 -1l-11 19l-125 211l-13 22l23 12l110 53l24 11v-1l2 1z" />
    <glyph glyph-name="uacute" unicode="&#xfa;" horiz-adv-x="1096" 
d="M548 0v0v0h-1q-134 0 -244.5 66t-176.5 176.5t-66 244.5v835v100h2h98h2h161h2h98h2v-100v-835q0 -51 35.5 -86.5t87.5 -37.5q52 2 87.5 37.5t35.5 86.5v835v100h3h97h3h160h3h97h2v-100v-835q0 -134 -65.5 -244.5t-176 -176.5t-245.5 -66v0h-1zM532 1910v0l24 -11
l110 -53l23 -12l-13 -22l-125 -211l-11 -19l-2 1v-1l-20 10l-73 35l-20 9l8 21l88 229l9 24l2 -1v1z" />
    <glyph glyph-name="ucircumflex" unicode="&#xfb;" horiz-adv-x="1096" 
d="M548 0v0v0h-1q-134 0 -244.5 66t-176.5 176.5t-66 244.5v835v100h2h98h2h161h2h98h2v-100v-835q0 -51 35.5 -86.5t87.5 -37.5q52 2 87.5 37.5t35.5 86.5v835v100h3h97h3h160h3h97h2v-100v-835q0 -134 -65.5 -244.5t-176 -176.5t-245.5 -66v0h-1zM726 1736v0l17 -17
l-17 -17l-72 -72l-16 -17l-2 1l-1 -1l-17 17l-68 68l-68 -68l-17 -17l-1 1l-1 -1l-17 17l-72 72l-17 17l17 17l158 158l17 17l1 -2l1 2l17 -17z" />
    <glyph glyph-name="udieresis" unicode="&#xfc;" horiz-adv-x="1096" 
d="M548 0v0v0h-1q-134 0 -244.5 66t-176.5 176.5t-66 244.5v835v100h2h98h2h161h2h98h2v-100v-835q0 -51 35.5 -86.5t87.5 -37.5q52 2 87.5 37.5t35.5 86.5v835v100h3h97h3h160h3h97h2v-100v-835q0 -134 -65.5 -244.5t-176 -176.5t-245.5 -66v0h-1zM422 1861v0q43 0 74 -31
t31 -75q0 -43 -31 -74t-74 -31h-1h-1v0h-1q-43 0 -74 31t-31 74q0 44 31 75t74 31h1v0h1h1zM676 1861v0q43 0 74 -31t31 -75q0 -43 -31 -74t-74 -31h-1h-1v0h-1q-43 0 -74 31t-31 74q0 44 31 75t74 31h1v0h1h1z" />
    <glyph glyph-name="yacute" unicode="&#xfd;" horiz-adv-x="1359" 
d="M762 0v0h-2h-161h-2h-98h-2v100v466l-363 711l-74 145h2h161h3h180h3h58h3l28 -54l182 -357l182 357l28 54h2h59h2h181h2h161h2l-74 -145l-363 -711v-466v-100h-2h-98zM652 1910v0l24 -11l110 -53l23 -12l-13 -22l-125 -211l-11 -19l-2 1v-1l-20 10l-73 35l-20 9l8 21
l88 229l9 24l2 -1v1z" />
    <glyph glyph-name="thorn" unicode="&#xfe;" horiz-adv-x="1056" 
d="M476 1235v0q143 0 261 -70.5t188.5 -188.5t70.5 -261v-1v-1v-1v-1q0 -143 -70.5 -261t-188.5 -188.5t-261 -70.5h-2h-49v-91v-100h-2h-98h-2h-161h-2h-98h-2v4v100v91v100v163v100v314v100v163v100v91v100h2h98h2h161h2h98h2v-4v-100v-87h49h2zM474 558v0q64 0 109 44.5
t47 110.5q-2 66 -47 110.5t-109 44.5h-49v-310h49z" />
    <glyph glyph-name="ydieresis" unicode="&#xff;" horiz-adv-x="1359" 
d="M762 0v0h-2h-161h-2h-98h-2v100v466l-363 711l-74 145h2h161h3h180h3h58h3l28 -54l182 -357l182 357l28 54h2h59h2h181h2h161h2l-74 -145l-363 -711v-466v-100h-2h-98zM562 1861v0q43 0 74 -31t31 -75q0 -43 -31 -74t-74 -31h-1h-1v0h-1q-43 0 -74 31t-31 74q0 44 31 75
t74 31h1v0h1h1zM816 1861v0q43 0 74 -31t31 -75q0 -43 -31 -74t-74 -31h-1h-1v0h-1q-43 0 -74 31t-31 74q0 44 31 75t74 31h1v0h1h1z" />
    <glyph glyph-name="dotlessi" unicode="&#x131;" horiz-adv-x="485" 
d="M160 0v0h-98h-2v100v1222v100h2h98h2h161h2h98h2v-100v-1222v-100h-2h-98h-2h-161h-2z" />
    <glyph glyph-name="gravecomb" unicode="&#x300;" horiz-adv-x="384" 
d="M228 1429v0l88 -229l8 -21l-20 -9l-73 -35l-20 -10v1l-2 -1l-11 19l-125 211l-13 22l23 12l110 53l24 11v-1l2 1z" />
    <glyph glyph-name="acutecomb" unicode="&#x301;" horiz-adv-x="384" 
d="M167 1440v0l24 -11l110 -53l23 -12l-13 -22l-125 -211l-11 -19l-2 1v-1l-20 10l-73 35l-20 9l8 21l88 229l9 24l2 -1v1z" />
    <glyph glyph-name="uni0302" unicode="&#x302;" horiz-adv-x="506" 
d="M429 1266v0l17 -17l-17 -17l-72 -72l-16 -17l-2 1l-1 -1l-17 17l-68 68l-68 -68l-17 -17l-1 1l-1 -1l-17 17l-72 72l-17 17l17 17l158 158l17 17l1 -2l1 2l17 -17z" />
    <glyph glyph-name="tildecomb" unicode="&#x303;" horiz-adv-x="585" 
d="M421 1367v0l83 -41l21 -10l-10 -22q-26 -50 -53.5 -77t-54.5 -36.5t-49 -9.5v0h-1v0h-1q-17 0 -34 4q-51 18 -74 44l-9 9q-6 6 -12 11.5t-10 8.5q-5 -2 -12.5 -8.5t-14.5 -15.5l-14 -20l-1 1l-1 -1l-19 14l-76 54l-19 14l14 20q64 83 143 83v0h1v0h1q29 0 56 -12
q41 -22 64 -48l1 -1l7 -7q6 -6 9 -8q11 7 31 44l10 21l2 -1l1 1z" />
    <glyph glyph-name="uni0308" unicode="&#x308;" horiz-adv-x="587" 
d="M168 1391v0q43 0 74 -31t31 -75q0 -43 -31 -74t-74 -31h-1h-1v0h-1q-43 0 -74 31t-31 74q0 44 31 75t74 31h1v0h1h1zM422 1391v0q43 0 74 -31t31 -75q0 -43 -31 -74t-74 -31h-1h-1v0h-1q-43 0 -74 31t-31 74q0 44 31 75t74 31h1v0h1h1z" />
    <glyph glyph-name="uni030A" unicode="&#x30a;" horiz-adv-x="491" 
d="M245 1470v0h1h1q76 0 130 -55t54 -133t-54 -133.5t-130 -55.5h-1h-1v0h-1q-76 0 -130 55.5t-54 133.5t54 133t130 55h1v0zM202 1282v0q0 -20 12.5 -34.5t30.5 -15.5q19 1 31.5 15.5t12.5 34.5t-12.5 34t-31.5 15q-18 -1 -30.5 -15t-12.5 -34z" />
    <glyph glyph-name="quoteleft" unicode="&#x2018;" horiz-adv-x="348" 
d="M60 1426v0h228l-4 -52l-21 -244l-3 -44h-3h-41h-2h-80h-2h-41h-3l-3 44l-21 244z" />
    <glyph glyph-name="quoteright" unicode="&#x2019;" horiz-adv-x="348" 
d="M60 1426v0h228l-4 -52l-21 -244l-3 -44h-3h-41h-2h-80h-2h-41h-3l-3 44l-21 244z" />
    <glyph glyph-name="quotedblleft" unicode="&#x201c;" horiz-adv-x="606" 
d="M318 1426v0h228l-4 -52l-20 -244l-4 -44h-2h-42h-2h-79h-3h-41h-3l-3 44l-21 244zM60 1426v0h228l-4 -52l-21 -244l-3 -44h-3h-41h-2h-80h-2h-41h-3l-3 44l-21 244z" />
    <glyph glyph-name="quotedblright" unicode="&#x201d;" horiz-adv-x="606" 
d="M318 1426v0h228l-4 -52l-20 -244l-4 -44h-2h-42h-2h-79h-3h-41h-3l-3 44l-21 244zM60 1426v0h228l-4 -52l-21 -244l-3 -44h-3h-41h-2h-80h-2h-41h-3l-3 44l-21 244z" />
    <glyph glyph-name="Euro" unicode="&#x20ac;" horiz-adv-x="1318" 
d="M1202 1356v0l56 -27v-63v-189v-119v0v-4q0 1 -1 2l-1 1v-3q-116 135 -310 141q-187 -6 -303 -132h151h3h21h3v-4v-20v-4v-159v-4v-20v-4h-3h-21h-3h-248q-1 -16 -1 -34v-12h262h3h21h3v-24v-163v-24v0v-4h-3h-21h-3h-183q56 -71 139 -112t183 -42q194 6 310 140v-2
q1 0 1 1l1 1v-119v-190v-63v0v-4l-56 -27q-146 -70 -308 -70h-1v0h-1h-1v0h-1v0h-1q-143 0 -272 53.5t-231 154.5q-120 121 -172 279h-115h-2h-22h-2v4v20v4v159v4v20v4h2h22h2h79v1v8v1v1v1v1v33h-92h-2h-22h-2v4v20v4v159v4v20v4h2h22h2h136q53 143 164 255
q102 101 231 154.5t272 53.5h1v0h1v0h1h1v0h1q162 0 308 -70z" />
    <glyph glyph-name="minus" unicode="&#x2212;" horiz-adv-x="740" 
d="M678 822v0h2v-4v-24v-163v-24h-2h-22h-2h-568h-2h-22h-2v4v24v163v24h2h616z" />
    </font>
</defs>
</svg>
